<?xml version="1.0" encoding="UTF-8" standalone="no"?>
<!-- Created with Inkscape (http://www.inkscape.org/) -->

<svg
   xmlns:dc="http://purl.org/dc/elements/1.1/"
   xmlns:cc="http://creativecommons.org/ns#"
   xmlns:rdf="http://www.w3.org/1999/02/22-rdf-syntax-ns#"
   xmlns:svg="http://www.w3.org/2000/svg"
   xmlns="http://www.w3.org/2000/svg"
   xmlns:sodipodi="http://sodipodi.sourceforge.net/DTD/sodipodi-0.dtd"
   xmlns:inkscape="http://www.inkscape.org/namespaces/inkscape"
   width="280px"
   height="280px"
   viewBox="0 0 280 280"
   version="1.1"
   id="SVGRoot"
   inkscape:version="0.92.3 (unknown)"
   sodipodi:docname="navbar-brand.svg">
  <sodipodi:namedview
     id="base"
     pagecolor="#ffffff"
     bordercolor="#666666"
     borderopacity="1.0"
     inkscape:pageopacity="0.0"
     inkscape:pageshadow="2"
     inkscape:zoom="1.1596551"
     inkscape:cx="140"
     inkscape:cy="140"
     inkscape:document-units="px"
     inkscape:current-layer="layer1"
     showgrid="false"
     inkscape:window-width="1299"
     inkscape:window-height="713"
     inkscape:window-x="67"
     inkscape:window-y="27"
     inkscape:window-maximized="1" />
  <defs
     id="defs2786" />
  <metadata
     id="metadata2789">
    <rdf:RDF>
      <cc:Work
         rdf:about="">
        <dc:format>image/svg+xml</dc:format>
        <dc:type
           rdf:resource="http://purl.org/dc/dcmitype/StillImage" />
        <dc:title></dc:title>
      </cc:Work>
    </rdf:RDF>
  </metadata>
  <g
     id="layer1"
     inkscape:groupmode="layer"
     inkscape:label="Layer 1">
    <path
       d="m 154.48593,134.76952 c 0.80134,-1.85848 1.27958,-3.93553 0.60527,-5.68188 0.0299,-0.0618 0.0431,-0.0949 0.0727,-0.16171 3.79199,-1.28405 8.91479,-3.23746 12.48101,-7.60656 0.66168,-0.80954 2.01777,-0.90013 2.81093,-0.1898 0.0343,0.0329 0.0682,0.0626 0.10257,0.0949 0.92979,0.91237 -0.0423,3.27917 0.3884,4.05923 0.43074,0.78509 5.69019,1.0698 6.16401,2.07346 0.49088,1.04466 0.44336,1.70537 0.26883,2.09792 -0.13221,0.29693 -4.73514,6.68986 -18.87595,10.00999 -2.29927,0.54067 -3.28922,0.60682 -4.87551,0.70172 -0.0468,0.003 -0.09,0.0329 -0.10179,0.0747 -2.30369,6.67694 7.85651,11.98785 7.76293,11.80596 -1.39915,-2.78739 -5.82238,-7.63961 -4.3549,-7.39589 1.41994,-0.14451 3.79198,0.66862 4.72625,1.40412 5.25497,4.12537 7.69087,9.42765 10.77067,10.63335 3.07976,1.20206 -5.78006,2.61842 -14.17946,-0.15679 -10.42906,-3.4524 -13.23182,-9.53909 -14.23809,-12.90884 -0.0216,-0.0619 0.0209,-0.12014 0.0891,-0.12786 2.38836,-0.3343 4.56879,-1.48678 5.96719,-3.87803 0.0387,-0.0619 0.10687,-0.56151 0.0387,-0.51623 -3.77489,2.54368 -9.18809,2.33302 -12.97559,0.087 -0.54586,-0.32206 -0.9766,0.1489 -0.64833,0.67295 1.43331,2.32942 3.63378,3.51427 5.91668,3.68753 0.0765,0.008 0.12324,0.0782 0.0936,0.14452 -1.78309,3.91543 -6.34298,11.57515 -17.01192,15.05633 -11.70418,3.82413 -18.62345,1.72261 -15.54369,0.52054 3.07978,-1.2057 7.67828,-9.70446 15.08771,-13.38766 1.75341,-0.87138 2.59779,-0.73908 3.55284,-1.24309 1.47194,-0.24372 -2.95129,4.60853 -4.35491,7.3959 -0.0898,0.1819 8.55239,-5.20308 9.04773,-11.75274 0.004,-0.0619 -0.0473,-0.11138 -0.10685,-0.11594 -1.56551,-0.0992 -2.5384,-0.24374 -4.83764,-0.70173 -14.65623,-2.90743 -18.74675,-9.71306 -18.87968,-10.00997 -0.17453,-0.39257 -0.22131,-1.05328 0.27329,-2.09791 0.47382,-1.00368 5.72882,-1.28838 6.15956,-2.07349 0.43072,-0.78006 -0.54138,-3.14686 0.39211,-4.05921 0.0304,-0.0324 0.0646,-0.0618 0.0989,-0.0949 0.7976,-0.71034 2.14922,-0.61975 2.81093,0.18978 3.56992,4.37343 8.69794,6.32682 12.48546,7.61087 0.0764,0.15311 0.11524,0.23582 0.19168,0.38392 -0.55402,1.70178 -0.0848,3.67959 0.68324,5.45543 0.0333,0.0784 -0.0344,0.161 -0.12032,0.14452 -0.79316,-0.16907 -1.59076,-0.30125 -2.39282,-0.48316 -1.99997,-0.45437 -3.94125,-1.0777 -5.82685,-1.87503 -0.0722,-0.0287 -0.17452,0.0626 -0.0981,0.12434 2.78568,2.13456 6.65862,4.87239 10.39119,4.73218 0.83621,-0.0329 -0.81026,-7.18955 3.55728,-7.02421 1.114,0.041 2.31635,0.041 3.61747,0.0784 1.02411,0.0244 2.70028,0.0158 3.72439,-0.007 1.2068,-0.0297 2.33267,-0.046 3.37833,-0.0705 4.24797,-0.0949 2.92158,6.99111 3.76225,7.02418 3.72813,0.14014 7.60105,-2.59759 10.38674,-4.73215 0.0764,-0.0619 -0.0214,-0.15312 -0.0981,-0.12435 -1.88559,0.79734 -3.82243,1.42066 -5.82684,1.87504 -0.79834,0.18191 -1.59967,0.31418 -2.3891,0.48315 -0.0891,0.0176 -0.15736,-0.0661 -0.12324,-0.14434"
       style="fill:#f24140;fill-opacity:1;fill-rule:nonzero;stroke:none;stroke-width:0.13333331"
       id="path56"
       inkscape:connector-curvature="0" />
    <path
       d="m 146.99928,256.88397 c 1.16001,0.73118 0.93871,2.23021 -0.21317,2.96929 -13.04466,8.36217 -39.73035,16.53885 -65.388201,13.85929 -16.734163,-1.74704 -24.540172,-9.15949 -24.617412,-9.2134 -0.396578,-0.27679 -0.878547,-0.41268 -1.368707,-0.38827 -3.549113,0.18981 -10.182491,1.42932 -12.38817,-1.67656 -0.182717,-0.26029 -0.370564,-0.61902 -0.558469,-1.05255 -1.881136,-4.39427 1.9153,-10.87347 5.251294,-14.36255 6.83312,-7.16079 17.164905,-14.59408 30.712348,-16.17579 34.445637,-4.02613 68.562297,26.03697 68.570467,26.04054"
       style="fill:#ffcfa0;fill-opacity:1;fill-rule:nonzero;stroke:none;stroke-width:0.13333331"
       id="path58"
       inkscape:connector-curvature="0" />
    <path
       d="m 213.43686,204.20832 c 0.1367,0.68516 0.32823,2.24602 0.14567,3.20007 -0.52951,2.78736 -2.85845,5.66535 -6.74847,8.37439 -2.22274,-0.63125 -5.03367,-1.24308 -7.047,-1.71325 l 13.64991,-9.86121"
       style="fill:#ffcfa0;fill-opacity:1;fill-rule:nonzero;stroke:none;stroke-width:0.13333331"
       id="path60"
       inkscape:connector-curvature="0" />
    <path
       d="m 212.23004,194.36726 c 0.44783,1.23015 0.759,4.47191 -0.22207,6.47923 -0.0176,0.0366 -0.0252,0.074 -0.0431,0.11593 0,0 -16.14523,12.09137 -16.23063,12.17764 -1.64202,-0.30986 -3.93681,-0.72684 -5.2127,-0.90372 3.03746,-3.18856 6.50565,-9.50242 16.41484,-14.31366 1.59074,-0.77216 3.37383,-2.31647 5.29362,-3.55522"
       style="fill:#ffcfa0;fill-opacity:1;fill-rule:nonzero;stroke:none;stroke-width:0.13333331"
       id="path62"
       inkscape:connector-curvature="0" />
    <path
       d="m 201.9926,189.75444 c 1.56103,1.1029 1.98733,5.09166 0.55029,6.71866 -3.65607,2.44516 -6.92373,5.23253 -9.56831,7.74313 -4.25315,4.03837 -6.89774,7.37504 -6.94453,7.47858 -1.11769,0.0826 -4.16775,0.83397 -5.36639,1.11509 0,0 5.1488,-9.18035 7.32031,-11.56296 1.68063,-1.84194 6.36451,-5.09163 9.8832,-7.42895 2.4062,-1.58962 4.12543,-4.06355 4.12543,-4.06355"
       style="fill:#ffcfa0;fill-opacity:1;fill-rule:nonzero;stroke:none;stroke-width:0.13333331"
       id="path64"
       inkscape:connector-curvature="0" />
    <path
       d="m 244.2227,251.83405 c 0.89121,3.51855 1.84625,8.12272 0.1404,10.18759 -3.90708,4.72426 -9.69974,4.30653 -9.91736,4.33602 -0.39285,0.0453 -0.77681,0.20631 -1.0835,0.4414 -2.33788,1.78878 -9.04327,6.85097 -23.09424,6.64893 -19.83991,-0.29333 -38.80948,-10.57151 -54.74974,-20.59016 -14.75943,-9.27882 -37.79798,-23.75283 -62.68867,-26.42519 4.862887,-2.3869 12.86123,-6.57411 22.17704,-6.94582 0.91272,-0.014 23.01775,0.014 36.23692,0.82177 18.57744,1.14026 23.80271,-4.02183 34.36025,-3.81551 19.62605,0.38392 32.10333,8.17671 35.29822,9.91152 6.0786,3.30289 19.48121,10.2904 23.32072,25.42945"
       style="fill:#ffcfa0;fill-opacity:1;fill-rule:nonzero;stroke:none;stroke-width:0.13333331"
       id="path66"
       inkscape:connector-curvature="0" />
    <path
       d="m 110.24694,69.836423 c -0.0259,-0.152411 -0.87483,-3.745029 -1.08798,-3.645813 l -5.8996,2.688149 c -0.10179,0.04894 -0.0767,0.197714 0.0386,0.202046 l 2.60597,0.156796 c 0.23466,0.01579 0.33716,0.285406 0.16185,0.43352 l -4.3631,3.6717 c -0.21388,0.181174 -0.01,0.503271 0.2644,0.421313 l 6.07416,-1.87504 c 0.16185,-0.04963 0.3327,0.05314 0.34978,0.210657 l 0.19605,1.667978 c -0.0549,0.01228 -0.11076,0.02087 -0.16185,0.03297 -1.44148,0.37601 -2.3594,1.181228 -2.94312,2.126649 -0.66171,1.074119 -0.89639,2.333728 -1.01148,3.369754 -0.2087,1.953403 2.71734,11.600329 4.11651,13.478947 0.28145,0.383921 1.32637,1.519882 2.20939,-1.19775 0.0136,-0.03665 0,-0.0784 -0.0252,-0.107162 -3.81798,-3.836352 -0.01,-5.58699 -0.12772,-7.779813 -0.12403,-2.238827 -3.12731,-5.789738 -3.99323,-6.987523 -0.0677,-0.09067 -0.055,-0.194117 0,-0.272498 0.0558,-0.0784 0.16633,-0.128032 0.28592,-0.103657 l 4.12096,1.218638 c 0.1835,0.04104 0.35424,-0.103657 0.32825,-0.276795 l -1.13848,-7.433285"
       style="fill:#ffcfa0;fill-opacity:1;fill-rule:nonzero;stroke:none;stroke-width:0.13333331"
       id="path68"
       inkscape:connector-curvature="0" />
    <path
       d="m 184.48607,73.342768 -4.36382,-3.671699 c -0.17453,-0.148203 -0.0727,-0.417 0.16634,-0.433539 l 2.60224,-0.156795 c 0.11524,-0.0035 0.14469,-0.153113 0.0423,-0.202028 l -5.9033,-2.68815 c -0.21314,-0.09927 -1.06199,3.493402 -1.08801,3.645813 l -1.13476,7.433285 c -0.0254,0.173282 0.14118,0.317766 0.32455,0.276777 l 4.2487,-1.593912 c 0.0209,-0.0035 0.0423,-0.0087 0.063,-0.0087 0.20572,0 0.34607,0.214988 0.22206,0.383921 -0.86594,1.197767 -3.9925,5.124706 -4.11579,7.363534 -0.12402,2.192822 3.68505,3.943461 -0.1285,7.779813 -0.0297,0.02876 -0.0387,0.07051 -0.0254,0.107161 0.87856,2.71765 1.92347,1.581689 2.20939,1.197768 1.39543,-1.878618 4.3252,-11.525563 4.11208,-13.478964 -0.13221,-1.222235 -0.43893,-2.745677 -1.40363,-3.919013 -0.57555,-0.701704 -1.39024,-1.275428 -2.55027,-1.577392 -0.0513,-0.01228 -0.10686,-0.01999 -0.16186,-0.03297 l 0.19605,-1.667979 c 0.0216,-0.157497 0.19168,-0.260256 0.35351,-0.210657 l 6.07043,1.87504 c 0.27255,0.08208 0.48199,-0.240122 0.26438,-0.421313"
       style="fill:#ffcfa0;fill-opacity:1;fill-rule:nonzero;stroke:none;stroke-width:0.13333331"
       id="path70"
       inkscape:connector-curvature="0" />
    <path
       d="m 157.38229,72.628139 c -3.08869,-0.173283 -5.2216,1.759267 -6.20709,2.911048 -0.17003,0.202729 -0.51615,0.04964 -0.4686,-0.20636 1.15184,-6.548951 5.25944,-7.730197 8.64147,-6.05359 1.96729,0.970589 4.94012,3.340973 6.5398,4.661704 0.22129,0.186208 0.55847,-0.05314 0.4181,-0.301244 -1.2328,-2.167654 -3.8306,-6.528816 -5.29807,-7.540393 -3.04561,-2.105831 -4.93492,-1.387588 -6.59028,-1.131647 -5.83949,0.892227 -6.88066,10.137991 -6.97052,11.034514 0.01,0.04525 0.0137,0.09067 0.0214,0.135925 1.85141,4.773846 1.27139,8.990525 0.6951,11.245171 -0.0981,0.387517 0.42702,0.614713 0.66987,0.292598 1.85142,-2.444415 2.79385,-5.177902 2.67059,-7.197442 0.0209,0.01228 0.0297,0.03736 0.0513,0.04963 2.43959,1.337988 5.01215,1.973519 7.79263,2.110127 0.21759,0.0071 0.27775,-0.289002 0.0682,-0.35514 -1.41177,-0.416999 -2.76414,-0.982848 -4.06081,-1.643547 -0.33272,-0.173282 -0.21314,-0.665031 0.16711,-0.672958 3.73626,-0.09559 9.54605,-0.516197 11.19249,-0.63625 0.11525,-0.0071 0.14119,-0.16539 0.0297,-0.206359 -2.14105,-0.797308 -6.16324,-1.148152 -7.26831,-1.267502 -0.20052,-0.02087 -0.23023,-0.202747 -0.1753,-0.388235 0.27774,-0.892227 4.3809,-0.499677 6.35635,-0.401179 0.0765,0.0035 -0.71667,-0.519794 -1.10061,-0.709614 0,-0.0035 -0.004,-0.0035 -0.01,-0.0087 -0.79762,-0.537052 -1.59894,-1.073401 -2.40993,-1.589598 0,-0.0035 -0.004,-0.0035 -0.004,-0.0035 -1.27068,-0.995056 -2.9899,-2.027469 -4.75148,-2.126685 z m -21.87035,2.704688 c 0.0423,0.255958 -0.29855,0.409089 -0.47382,0.20636 -0.98476,-1.151781 -3.11318,-3.084331 -6.20632,-2.911048 -0.0891,0.0035 -0.1835,0.02087 -0.27255,0.02876 -0.0981,-0.02876 -0.20944,-0.02876 -0.33719,0.01578 -0.0558,0.02087 -0.11134,0.04157 -0.17081,0.06174 -1.18157,0.243716 -2.32082,0.842609 -3.28031,1.511954 -1.08724,0.606802 -2.12397,1.300596 -3.10501,2.060529 -0.01,0.0035 -0.0136,0.0071 -0.0216,0.01228 -0.51243,0.235088 -1.02414,0.495345 -1.53136,0.776455 -0.0854,0.04525 3.49788,-0.446447 5.22974,-0.243718 0.80208,0.09488 1.44595,0.437852 1.56998,0.615431 0.11076,0.161005 0.0299,0.367383 -0.17531,0.388236 -1.10063,0.115053 -4.84136,0.672959 -6.95272,1.494697 -0.11134,0.04104 -0.0854,0.197713 0.0333,0.202028 1.63385,0.07909 7.17997,0.330726 10.8739,0.413386 0.37951,0.0071 0.49909,0.499694 0.16633,0.672958 -1.29741,0.660716 -2.64531,1.226548 -4.05707,1.643547 -0.20871,0.06174 -0.14938,0.36305 0.0682,0.355158 2.66165,-0.132242 5.13987,-0.718243 7.48593,-1.945493 0.15366,-0.08208 0.34608,-0.01228 0.38468,0.14522 0.27256,1.056844 1.22761,4.583342 2.90896,7.069481 0.16634,0.243717 0.5711,0.09067 0.49016,-0.189804 -0.39658,-1.429295 -0.85702,-3.848576 -0.55032,-6.789107 0.0476,-0.478823 0.11954,-0.97059 0.2139,-1.478175 0.0891,-0.478806 0.20052,-0.974904 0.34088,-1.474563 0.16186,-0.603207 0.36242,-1.214324 0.60599,-1.837647 0.004,-0.04525 0.0136,-0.09067 0.0176,-0.135925 -0.0854,-0.896541 -1.13031,-10.142288 -6.97053,-11.034515 -1.65463,-0.255941 -3.54022,-0.974184 -6.59029,1.131647 -1.46301,1.011577 -4.06082,5.372738 -5.29361,7.540394 -0.14118,0.248031 0.19149,0.487452 0.41364,0.301227 1.59969,-1.320714 4.57697,-3.691098 6.53906,-4.661687 3.38722,-1.676608 7.49039,-0.495362 8.64669,6.053606 z m 7.47774,18.075249 v 0.0035 c -0.004,0 -0.0137,-0.0035 -0.0176,-0.0035 -0.01,0 -0.0209,0 -0.0209,0 -0.81542,-0.07489 -2.39356,-0.342951 -3.99323,-1.36314 -2.29479,-1.46595 -3.61299,0.194118 -4.72179,-0.585966 -0.38021,-0.268148 -0.57182,-0.570111 -0.64906,-0.879984 -0.004,-0.01579 -0.004,-0.03244 0,-0.04964 0.11135,-0.68085 0.44412,-1.300596 1.01595,-1.788066 0.66541,-0.569392 0.2005,-1.573059 -0.70404,-1.494679 -2.87479,0.251627 -5.68202,1.465934 -8.2375,2.775159 -0.36685,0.185489 -0.22129,0.726872 0.19228,0.710315 4.03111,-0.165389 5.5023,1.643548 5.92114,2.353863 0.0848,0.140134 0.01,0.322115 -0.15814,0.3674 -4.48266,1.309225 -8.1855,-0.123648 -9.31211,-0.648492 -0.17083,-0.0784 -0.37948,0.01228 -0.40103,0.189786 -0.48199,4.844316 3.22533,15.221718 8.34369,19.822298 0.23022,0.20632 0.58893,-0.0626 0.4181,-0.30988 -1.48381,-2.15974 -3.95015,-6.58634 -4.7344,-13.086405 -0.0259,-0.20632 0.21761,-0.355145 0.40922,-0.24803 0.49014,0.27248 1.16893,0.54928 1.75339,0.64849 0.11525,0.0158 0.21314,0.0826 0.26439,0.186205 2.33713,4.64516 8.62886,7.08171 14.61389,7.08171 0.0423,0 0.0854,-0.003 0.12773,-0.003 v -0.003 c 0,0 0,0 0.004,0 v 0.003 c 0,0 0,0 0.004,0 h 0.004 v -0.003 c 0,0 0,0 0.004,0 v 0.003 c 0.0431,0 0.0855,0.003 0.12851,0.003 5.98429,0 12.27676,-2.43655 14.60945,-7.08171 0.0513,-0.103645 0.14917,-0.169595 0.26513,-0.186205 0.58816,-0.0993 1.26251,-0.37601 1.75265,-0.64849 0.19605,-0.106975 0.43518,0.0416 0.41366,0.24803 -0.69958,5.793345 -2.73443,9.939535 -4.22274,12.302025 -0.23467,0.3717 0.28593,0.74699 0.59265,0.43352 4.7604,-4.87305 8.11348,-14.540105 7.65301,-19.161558 -0.0176,-0.17686 -0.22649,-0.268149 -0.39657,-0.189786 -1.12659,0.524827 -4.83317,1.957717 -9.31654,0.648492 -0.16185,-0.04525 -0.23915,-0.227196 -0.15737,-0.3674 0.42181,-0.710315 1.89375,-2.519217 5.92486,-2.353863 0.40921,0.01579 0.55402,-0.524826 0.19149,-0.710315 -2.55916,-1.309225 -5.36641,-2.523532 -8.23676,-2.775159 -0.90454,-0.0784 -1.37389,0.925287 -0.70402,1.494679 0.57185,0.48747 0.9001,1.107216 1.01074,1.788066 0.004,0.01754 0.004,0.03385 0,0.04964 -0.0764,0.309873 -0.26882,0.611836 -0.64832,0.879984 -1.10879,0.780084 -2.42699,-0.879984 -4.71806,0.585966 -1.59893,1.020189 -3.17781,1.288355 -3.99622,1.36314 0,0 -0.0136,0 -0.0176,0 -0.01,0 -0.0176,0.0035 -0.0216,0.0035 v -0.0035 c -0.0342,-0.0035 -0.0765,-0.0087 -0.11525,-0.01228 -0.0423,0.0035 -0.081,0.0071 -0.11953,0.01228 z m 0.11954,32.821704 c -0.0386,0 -0.081,0.003 -0.11954,0.003 v 0.003 c -0.004,0 -0.0137,0 -0.0176,0 -0.01,0 -0.0136,0 -0.0209,0 v -0.003 c -3.40058,-0.0618 -7.10716,-1.23015 -8.71502,-2.13459 -5.55427,-3.13391 -11.68783,-12.25242 -13.81701,-16.96444 -0.15288,-0.33432 -0.69513,-0.1819 -0.6268,0.17398 0.54659,2.77084 1.49347,5.60784 2.90081,8.1968 0.055,0.10698 -0.0764,0.21065 -0.16633,0.13224 -1.03674,-0.88358 -2.08166,-1.92032 -3.05453,-3.12601 -2.96023,-3.68751 -5.58772,-10.50177 -5.80086,-16.415147 -0.32452,-9.035845 0.83177,-26.34683 0.83177,-26.34683 0,0 0.19169,-2.411372 0.27255,-2.452359 1.90267,-0.941826 3.11024,-1.586004 6.36008,-2.358161 5.42208,-3.819813 9.76066,-4.162764 13.22365,-2.271203 3.09314,-0.309837 4.56878,-0.289001 8.59173,-0.297631 v -0.0035 c 0.008,0 0.0117,0.0035 0.0209,0.0035 0.004,0 0.0136,-0.0035 0.0176,-0.0035 v 0.0035 c 0.0431,0 0.081,0 0.11954,0 0.0387,0 0.0764,0 0.11525,0 v -0.0035 c 0.01,0 0.0136,0.0035 0.0216,0.0035 0.004,0 0.0137,-0.0035 0.0176,-0.0035 v 0.0035 c 2.77232,0.0035 5.30178,0.09488 7.62257,0.256662 7.6649,-3.642236 13.67147,2.125965 14.07621,2.237406 2.8451,0.801621 4.94011,1.672994 6.47591,2.432927 0.0848,0.04104 0.13222,0.119437 0.1367,0.210674 l 0.14021,2.241685 c 0,0 1.15186,17.310985 0.82734,26.34683 -0.20867,5.913377 -2.83621,12.727637 -5.80087,16.415147 -0.97287,1.20569 -2.01331,2.24243 -3.05451,3.12601 -0.0891,0.0784 -0.22207,-0.0253 -0.16633,-0.12803 1.23725,-2.27548 2.12026,-4.74078 2.6832,-7.18163 0.11505,-0.49966 -0.61419,-0.73045 -0.82732,-0.26386 -2.12472,4.6955 -5.33224,11.33577 -13.39891,16.03485 -1.58259,0.92099 -5.3107,2.07276 -8.71428,2.13457 v 0.003 c -0.004,0 -0.0136,0 -0.0176,0 -0.01,0 -0.0137,0 -0.0216,0 v -0.003 c -0.0386,0 -0.0764,-0.003 -0.11524,-0.003 z m 4.11207,-13.99517 c 2.78568,-1.18124 4.68761,-3.68751 4.47893,-3.61346 -1.09246,0.36738 -3.55729,1.1647 -4.71806,1.35881 -0.0252,0.003 -0.0513,-0.003 -0.072,0.003 -0.0216,0.008 -0.0473,0.0176 -0.0646,0.0208 -4.16332,0.66503 -8.62516,0.19844 -12.31912,-1.61404 -0.0423,-0.0208 -0.0765,0.0244 -0.0468,0.0576 1.2922,1.53208 2.73891,3.12601 4.50936,3.82769 0.56219,0.22722 1.01449,0.63197 1.36501,1.09859 0.85701,1.16039 1.85069,2.07705 2.7634,2.07705 0.98996,0 2.03044,-1.04032 2.9179,-2.30424 0.2859,-0.40837 0.70846,-0.70962 1.186,-0.91237"
       style="fill:#ffcfa0;fill-opacity:1;fill-rule:nonzero;stroke:none;stroke-width:0.13333331"
       id="path72"
       inkscape:connector-curvature="0" />
    <path
       d="m 125.66216,90.0218 c 0,0 -1.71776,0.898699 -2.57107,1.724769 -0.51835,0.501833 -0.8429,0.852695 -1.01891,1.052565 0.0722,-0.02666 0.156,-0.02947 0.2332,0.0053 1.12659,0.524827 4.82944,1.9577 9.3121,0.648493 0.16634,-0.04525 0.24283,-0.227196 0.15814,-0.3674 -0.41886,-0.710315 -1.89004,-2.5192 -5.92117,-2.353845 -0.41364,0.01578 -0.55922,-0.524828 -0.19227,-0.710333 z m 40.77527,-10.671447 0.0214,4.92e-4 -0.01,-0.0013 c -0.004,0 -0.01,4.73e-4 -0.0136,4.73e-4 z M 147.04977,65.110738 c 1.90342,-1.588178 3.83355,-2.484 3.83355,-2.484 l -0.004,-4.73e-4 c -2.3186,-0.161006 -4.84584,-0.251627 -7.6152,-0.25596 v -0.0035 c -0.004,0 -0.0136,0.0035 -0.0176,0.0035 -0.01,0 -0.0136,-0.0035 -0.0216,-0.0035 v 0.0035 h -0.23457 v -0.0035 c -0.004,0 -0.0137,0.0035 -0.0176,0.0035 -0.01,0 -0.0136,-0.0035 -0.0209,-0.0035 v 0.0035 c -2.67876,0.0053 -4.22868,-9.82e-4 -5.87809,0.08488 -0.88227,0.05244 -1.76825,0.119438 -2.64682,0.206342 -0.0224,0.0018 -0.0439,0.0035 -0.0669,0.0071 v 0 h -0.002 c 0,0 2.21608,0.798746 4.30292,2.718351 1.4222,1.307787 6.3274,1.445115 8.389,-0.27534 z m -24.56393,17.004708 c 0.21686,-0.02297 0.37058,-0.03876 0.42775,-0.03876 0.15152,0 -0.0252,-0.04157 -0.42775,0.03876 z m 37.87818,8.61667 c -4.0311,-0.165389 -5.50304,1.64353 -5.92488,2.35388 -0.0817,0.140134 -0.004,0.32208 0.15737,0.367382 4.48339,1.309209 8.18995,-0.123647 9.31656,-0.648509 0.0698,-0.03244 0.14411,-0.02947 0.21164,-0.01052 -0.17745,-0.19987 -0.49979,-0.549258 -1.01519,-1.047513 -0.76123,-0.736922 -2.20642,-1.529212 -2.51091,-1.693129 0.30003,0.207781 0.15522,0.694495 -0.23467,0.678676 z m 12.19953,-1.04462 0.0137,-0.05173 c -0.0137,-0.831123 -0.0304,-1.677328 -0.0519,-2.530004 l -0.19247,-5.50719 c 0.004,0.02807 0.006,0.05104 0.01,0.0777 -0.0484,-1.189875 -0.10023,-2.347392 -0.15308,-3.44596 -0.0751,-1.482472 -0.15151,-2.946266 -0.21985,-4.23106 -0.14333,-2.576726 -0.25471,-4.249721 -0.25471,-4.249721 l -0.0669,-1.06621 c -0.0534,-0.56941 -0.1174,-1.181964 -0.16264,-1.343724 -0.0156,-0.01403 -0.0267,-0.03245 -0.0484,-0.04244 -1.38357,-0.685166 -3.22831,-1.460199 -5.66049,-2.193542 -0.21388,-0.05384 -0.43371,-0.108565 -0.66691,-0.163811 0,0 2.16633,3.302879 1.25285,8.805053 0.004,0.01947 0.01,0.03596 0.0136,0.05612 -0.0156,-0.02807 -0.0259,-0.04315 -0.0386,-0.06401 0.0214,0.207043 -0.25693,0.365926 -0.4493,0.204167 -1.59965,-1.320713 -4.57251,-3.691115 -6.53904,-4.661687 -3.38278,-1.676608 -7.49037,-0.495362 -8.64225,6.05359 -0.0473,0.255959 0.29855,0.409089 0.46862,0.206342 0.98551,-1.151764 3.11841,-3.084313 6.2071,-2.911066 1.76156,0.09927 3.48079,1.131647 4.75146,2.126685 0,0 0.004,0 0.004,0.0035 0.81095,0.516199 1.6123,1.052531 2.40988,1.589599 0.004,0.0035 0.01,0.0035 0.01,0.0087 0.23246,0.115053 0.61344,0.351562 0.86148,0.520529 1.24764,0.225022 2.45148,0.48098 3.35085,0.6902 3.83876,0.895084 -0.64019,2.237371 -0.64019,2.237371 7.39385,4.989554 -2.56214,2.501976 -4.37123,2.309998 1.01445,0.201326 4.46036,1.991514 5.81123,4.297215 1.18753,2.026715 1.39694,3.704042 1.15781,5.034103 -0.3379,1.049671 -0.74934,1.969223 -1.25061,2.632815 -0.19978,0.240859 -0.39956,0.444325 -0.58226,0.613274 -1.11544,0.906608 -2.60076,0.660717 -4.58364,-1.681641 0.19755,2.024574 -0.33196,5.009688 -1.3895,8.136399 -0.002,0.007 -0.005,0.0158 -0.01,0.0244 -0.0722,0.21495 -0.14782,0.43062 -0.22503,0.64631 -0.008,0.0202 -0.0156,0.0402 -0.023,0.0603 -0.0736,0.20418 -0.14919,0.40908 -0.22726,0.61399 -0.008,0.0158 -0.0137,0.033 -0.0199,0.0496 -0.0796,0.20852 -0.16127,0.417 -0.24582,0.6255 -0.01,0.0202 -0.0176,0.0402 -0.0252,0.061 -0.0831,0.20419 -0.16789,0.4091 -0.25474,0.61256 -0.01,0.0244 -0.0216,0.0489 -0.0328,0.074 -0.0854,0.19914 -0.17219,0.39757 -0.2614,0.596 -0.0223,0.0497 -0.046,0.0986 -0.0682,0.14821 -0.0796,0.17328 -0.15815,0.3458 -0.24062,0.51763 -0.0273,0.0582 -0.0563,0.11506 -0.084,0.17328 -0.0788,0.16329 -0.15679,0.3257 -0.23766,0.48674 -0.0312,0.0618 -0.0637,0.12294 -0.095,0.18478 -0.0796,0.15679 -0.15814,0.31202 -0.23987,0.4666 -0.0349,0.0661 -0.0712,0.13084 -0.10686,0.19627 -0.0796,0.1496 -0.15892,0.29836 -0.24135,0.44575 -0.0344,0.0626 -0.0706,0.12365 -0.10628,0.18549 -0.0838,0.14891 -0.1679,0.29765 -0.25399,0.4443 -0.037,0.0633 -0.0751,0.12435 -0.11291,0.18695 -0.0855,0.14382 -0.17082,0.28758 -0.25844,0.42921 -0.0439,0.0703 -0.0891,0.13942 -0.13357,0.20922 -0.0831,0.13084 -0.16478,0.26242 -0.24955,0.39108 -0.0484,0.074 -0.0989,0.14592 -0.14781,0.21859 -0.0817,0.12224 -0.16264,0.24516 -0.2458,0.3645 -0.0542,0.0784 -0.11077,0.15382 -0.16497,0.2308 -0.0802,0.11224 -0.15893,0.22503 -0.23989,0.3343 -0.0513,0.0689 -0.10395,0.13593 -0.15523,0.20419 -0.0862,0.11365 -0.1716,0.22863 -0.2592,0.33862 -0.0854,0.10856 -0.17238,0.21281 -0.25841,0.31851 -0.0558,0.0668 -0.10999,0.13663 -0.16556,0.20274 -0.11428,0.13592 -0.22948,0.26672 -0.34607,0.39758 -0.029,0.0324 -0.0572,0.0668 -0.087,0.0992 -0.14567,0.161 -0.29262,0.31777 -0.4419,0.47019 -0.3067,0.31347 -0.82731,-0.0618 -0.59264,-0.43352 0.0891,-0.14171 0.18039,-0.2912 0.27404,-0.44574 0.0343,-0.0576 0.0698,-0.11945 0.10472,-0.17832 0.0587,-0.1 0.11739,-0.19915 0.17745,-0.3034 0.0447,-0.0791 0.0899,-0.16241 0.13515,-0.24372 0.0505,-0.0907 0.101,-0.18046 0.15229,-0.27465 0.0513,-0.0949 0.10257,-0.1934 0.15444,-0.29188 0.0453,-0.0863 0.0914,-0.17258 0.1367,-0.26171 0.0558,-0.10927 0.11213,-0.22288 0.1679,-0.33646 0.0415,-0.0835 0.0831,-0.1668 0.1248,-0.25237 0.0593,-0.12364 0.11875,-0.2509 0.17902,-0.37959 0.037,-0.0807 0.0743,-0.16101 0.11075,-0.24229 0.0632,-0.13944 0.12539,-0.28112 0.18799,-0.42491 0.0333,-0.0763 0.0661,-0.15312 0.0989,-0.23079 0.0653,-0.15382 0.12986,-0.31057 0.1946,-0.4702 0.029,-0.0719 0.0579,-0.14522 0.0869,-0.21929 0.0661,-0.16889 0.13222,-0.34077 0.19754,-0.51619 0.0246,-0.0655 0.0484,-0.13312 0.0727,-0.19987 0.0682,-0.18836 0.1367,-0.37817 0.20275,-0.57301 0.0195,-0.0532 0.0365,-0.10856 0.0542,-0.1624 0.0704,-0.21138 0.14119,-0.42491 0.2087,-0.64347 0.01,-0.0329 0.0199,-0.0676 0.0299,-0.10071 0.40176,-1.30922 0.75005,-2.75432 1.00034,-4.33529 0.0518,-0.38896 0.10316,-0.793725 0.15444,-1.215745 0.008,-0.0559 -0.008,-0.10646 -0.0333,-0.1503 l -0.36762,-0.0956 c -0.004,0.001 -0.01,0.003 -0.0117,0.007 -0.0637,0.17469 -2.2948,6.141295 -8.22412,9.370125 -0.0371,0.0431 -0.0751,0.0863 -0.11212,0.12944 0.0624,-0.0208 0.12402,-0.041 0.17979,-0.0597 0.0117,-0.003 0.0156,10e-4 0.0137,0.014 0,0.003 -0.004,0.0105 -0.006,0.0158 -0.004,0.0123 -0.01,0.0253 -0.0199,0.0432 -0.006,0.0105 -0.0156,0.0229 -0.0224,0.0366 -0.0117,0.0181 -0.0246,0.0387 -0.0408,0.0613 -0.0137,0.0195 -0.0259,0.0382 -0.0418,0.0597 -0.0156,0.0208 -0.0333,0.0445 -0.0513,0.0677 -0.0898,0.11786 -0.21091,0.26385 -0.36315,0.43352 -0.004,0.003 -0.008,0.007 -0.01,0.0105 -0.0518,0.0582 -0.109,0.11856 -0.16789,0.18118 -0.0117,0.0123 -0.023,0.0244 -0.0349,0.0366 -0.0608,0.064 -0.12481,0.12943 -0.19228,0.19628 -0.01,0.008 -0.0195,0.0186 -0.0283,0.0281 -0.3008,0.29909 -0.66247,0.62621 -1.07761,0.95406 -0.004,0.003 -0.008,0.007 -0.0117,0.008 -0.0936,0.0749 -0.1917,0.14821 -0.29038,0.22217 -0.0224,0.0158 -0.0444,0.0324 -0.0669,0.0489 -0.0957,0.0698 -0.19305,0.13873 -0.29333,0.20778 -0.0252,0.0176 -0.0513,0.0344 -0.0765,0.0518 -0.10335,0.0698 -0.20795,0.13874 -0.3156,0.20635 v 0 c -0.44264,0.30913 -0.90382,0.57586 -1.39175,0.76927 -0.47455,0.19195 -0.86592,0.51332 -1.18824,0.8879 -0.002,0.003 -0.006,0.007 -0.01,0.0105 -0.0518,0.0747 -0.10549,0.14873 -0.15893,0.22146 -0.002,0.003 -0.004,0.005 -0.005,0.008 -0.0542,0.0734 -0.10999,0.14592 -0.16498,0.21783 -9.1e-4,0.001 -0.002,0.003 -0.004,0.005 -0.0563,0.0719 -0.1129,0.14311 -0.16926,0.2128 -0.004,0.005 -0.01,0.0105 -0.0136,0.0158 -0.054,0.0661 -0.10842,0.13084 -0.16342,0.19412 -0.004,0.007 -0.0117,0.0123 -0.0156,0.0186 -0.0542,0.0618 -0.10764,0.12225 -0.16263,0.18117 -0.008,0.007 -0.0156,0.0158 -0.023,0.0244 -0.0518,0.056 -0.10472,0.11085 -0.15679,0.16399 -0.0117,0.0123 -0.023,0.0216 -0.0349,0.0329 -0.0489,0.0489 -0.0981,0.097 -0.14781,0.14312 -0.0156,0.014 -0.0312,0.0274 -0.0468,0.0416 -0.046,0.041 -0.0914,0.0826 -0.13727,0.12084 -0.0176,0.0158 -0.0365,0.0295 -0.055,0.0445 -0.0439,0.0353 -0.0869,0.0712 -0.13007,0.10418 -0.0224,0.0158 -0.0439,0.0302 -0.0661,0.046 -0.0399,0.0295 -0.0802,0.0589 -0.12032,0.0856 -0.0259,0.0176 -0.0513,0.0316 -0.0772,0.0482 -0.0365,0.0229 -0.0736,0.0468 -0.10998,0.0676 -0.029,0.0158 -0.0571,0.0295 -0.0862,0.0445 -0.0333,0.0176 -0.0677,0.0366 -0.10101,0.0524 -0.032,0.0158 -0.0637,0.0266 -0.096,0.0395 -0.0304,0.0123 -0.0608,0.0266 -0.0914,0.0382 -0.0349,0.0123 -0.0706,0.0216 -0.1055,0.0316 -0.0273,0.007 -0.055,0.0186 -0.0817,0.0253 -0.0416,0.0105 -0.0822,0.0158 -0.12402,0.0229 -0.0209,0.003 -0.0418,0.008 -0.0632,0.0123 -0.0617,0.007 -0.12324,0.0123 -0.18564,0.0123 -0.79909,0 -1.66057,-0.7024 -2.43812,-1.65645 -0.10999,-0.13523 -0.21907,-0.27609 -0.32529,-0.42059 -0.35052,-0.46662 -0.80281,-0.87138 -1.36501,-1.09857 -0.21906,-0.0863 -0.43294,-0.18765 -0.64237,-0.29983 -0.0751,-0.0403 -0.14781,-0.0892 -0.22129,-0.13294 -0.13221,-0.077 -0.2644,-0.15171 -0.39213,-0.23725 -0.0915,-0.0612 -0.17823,-0.13013 -0.2681,-0.19485 -0.10607,-0.0777 -0.21462,-0.15241 -0.31935,-0.23509 -0.0989,-0.0784 -0.19461,-0.16398 -0.2911,-0.24659 -0.0907,-0.077 -0.18272,-0.15101 -0.27109,-0.23151 -0.10628,-0.0965 -0.2094,-0.1977 -0.31339,-0.29837 -0.0751,-0.0726 -0.15151,-0.14241 -0.22575,-0.21641 -0.11584,-0.11646 -0.22949,-0.23725 -0.34311,-0.35657 -0.0581,-0.0618 -0.11662,-0.12085 -0.17375,-0.18264 -0.13066,-0.14241 -0.25842,-0.28614 -0.38618,-0.42992 -0.0355,-0.041 -0.0727,-0.0807 -0.10843,-0.12137 -0.15737,-0.18046 -0.31193,-0.36019 -0.4649,-0.54067 -6.01698,-3.27699 -8.2271,-9.378015 -8.2271,-9.378015 v -4.9e-4 l -0.37654,0.0979 c -0.0136,0.0209 -0.0214,0.0431 -0.0273,0.0668 0,0.001 -9.2e-4,0.002 -9.2e-4,0.003 -0.005,0.0253 -0.008,0.0517 -0.004,0.0791 0.78425,6.500055 3.2506,10.926675 4.73442,13.086415 0.17081,0.24732 -0.18799,0.51621 -0.41813,0.30986 -0.15971,-0.14382 -0.31861,-0.29333 -0.4753,-0.44789 -0.31414,-0.30917 -0.62236,-0.63988 -0.92459,-0.98931 -1.02636,-1.18628 -1.9762,-2.5875 -2.82504,-4.09157 -0.037,-0.0655 -0.0743,-0.13083 -0.11077,-0.19697 -0.81096,-1.46164 -1.52462,-3.0153 -2.11876,-4.56609 -0.0342,-0.0884 -0.0691,-0.17686 -0.10257,-0.26529 -1.03898,-2.773735 -1.68657,-5.511513 -1.80686,-7.656859 -0.0117,-0.217847 -0.0209,-0.4321 -0.0216,-0.637723 -0.004,-0.342933 0.0117,-0.667188 0.0415,-0.970589 -1.85439,2.197137 -3.27359,2.5638 -4.36306,1.868568 -0.33569,-0.285442 -0.76641,-0.714648 -1.15259,-1.287653 -0.30005,-0.505429 -0.56368,-1.107197 -0.79464,-1.770773 -0.34609,-1.382555 -0.21613,-3.178495 1.08129,-5.392171 1.35014,-2.305684 4.79678,-4.095889 5.81048,-4.297181 -1.80834,0.191944 -11.76505,2.679538 -4.37122,-2.310016 0,0 -4.47892,-1.342286 -0.64017,-2.237388 0.78797,-0.183332 1.81059,-0.401882 2.89115,-0.605365 0.42479,-0.228616 0.85108,-0.446463 1.27887,-0.642739 0.01,-0.0035 0.0136,-0.0087 0.0214,-0.01228 0.98106,-0.759949 2.01779,-1.453725 3.10503,-2.060545 0.9595,-0.669346 2.09874,-1.26822 3.28029,-1.511938 0.0594,-0.01999 0.11524,-0.04104 0.17081,-0.06173 0.12774,-0.04525 0.23912,-0.04525 0.33716,-0.01579 0.0891,-0.007 0.1833,-0.02438 0.27254,-0.02876 3.09316,-0.173283 5.22158,1.759249 6.20634,2.91103 0.17531,0.202729 0.5169,0.04964 0.47382,-0.206342 -1.15631,-6.548968 -5.25946,-7.730214 -8.64668,-6.053607 -1.96211,0.97059 -4.93939,3.340973 -6.53906,4.661704 -0.18037,0.15171 -0.42926,0.02087 -0.44261,-0.166792 -0.005,0.01052 -0.01,0.01579 -0.0156,0.02666 0.004,-0.02017 0.01,-0.03665 0.0136,-0.05594 -0.91347,-5.502157 1.2536,-8.805037 1.2536,-8.805037 -0.023,0.0053 -0.0431,0.01052 -0.0653,0.01579 -2.78792,0.666486 -4.0623,1.240211 -5.59439,1.99511 -0.22503,0.111371 -0.45673,0.226476 -0.69884,0.346528 -0.081,0.04104 -0.27254,2.45236 -0.27254,2.45236 0,0 -0.3498,6.31674 -0.59562,11.452216 -0.004,-0.04525 -0.008,-0.0898 -0.01,-0.131541 -0.11213,2.659421 -0.20869,5.501438 -0.25473,8.196077 l -5e-4,0.02245 c -4.6e-4,0.07909 -0.002,0.157497 -0.004,0.237246 l 5e-4,4.91e-4 c -0.0283,1.780121 -0.0349,3.489806 -0.01,5.031243 9.1e-4,0.02666 9.1e-4,0.05314 0.002,0.0798 0.004,0.232212 0.01,0.460846 0.0156,0.685165 4.8e-4,0.03665 0.004,0.07261 0.004,0.109266 0.005,0.225758 0.0136,0.447902 0.0209,0.664312 0.21313,5.913393 2.84064,12.727633 5.80084,16.415153 0.9729,1.20569 2.01778,2.24242 3.05453,3.12601 0.0897,0.0784 0.22131,-0.0252 0.16634,-0.13224 -1.40732,-2.58894 -2.35419,-5.42593 -2.90078,-8.19679 -0.0682,-0.35587 0.47381,-0.50831 0.62679,-0.17398 2.12918,4.71202 8.26272,13.83052 13.81704,16.96443 1.60784,0.90446 5.31442,2.07276 8.71502,2.13458 v 0.003 h 0.0378 v -0.003 c 0.0387,0 0.081,-0.003 0.11954,-0.003 0.0386,0 0.0765,0.003 0.11524,0.003 v 0.003 h 0.0252 v -0.003 c 3.39986,-0.0618 7.10644,-1.23012 8.71428,-2.13458 0.28072,-0.15819 0.55846,-0.3271 0.83547,-0.4975 9.1e-4,-4.9e-4 0.002,-4.9e-4 0.002,-0.003 1.63086,-1.01876 3.0523,-2.11804 4.29846,-3.26119 l 5e-4,-4.7e-4 c 0.16418,-0.1503 0.32304,-0.30055 0.4805,-0.45223 0.0176,-0.0158 0.0349,-0.0324 0.0513,-0.0487 0.14703,-0.14101 0.28962,-0.28399 0.43146,-0.42635 0.0259,-0.0266 0.0529,-0.0524 0.0788,-0.0784 0.13435,-0.13733 0.26584,-0.27465 0.39581,-0.41197 0.0304,-0.0323 0.0624,-0.0647 0.0928,-0.0979 0.12402,-0.13224 0.24582,-0.26529 0.36612,-0.399 0.0343,-0.0382 0.0691,-0.0763 0.10335,-0.11436 0.11505,-0.12943 0.228,-0.25882 0.33936,-0.38823 0.037,-0.0431 0.0743,-0.0856 0.11077,-0.12803 0.10764,-0.12663 0.21311,-0.25308 0.31637,-0.37962 0.0386,-0.0468 0.0772,-0.0928 0.11427,-0.13873 0.1016,-0.12505 0.20052,-0.24947 0.29853,-0.37387 0.0378,-0.0487 0.0765,-0.0979 0.11427,-0.14663 0.095,-0.12137 0.18799,-0.24442 0.27999,-0.36665 0.0386,-0.0518 0.0774,-0.10282 0.11524,-0.15451 0.0897,-0.11997 0.17824,-0.24084 0.26515,-0.36163 0.0378,-0.0534 0.0757,-0.10558 0.11369,-0.15891 0.0838,-0.11855 0.16634,-0.23724 0.24804,-0.35588 0.0386,-0.0555 0.0764,-0.11085 0.11428,-0.1661 0.0796,-0.11645 0.15814,-0.23365 0.2354,-0.35013 0.037,-0.0568 0.0743,-0.11277 0.11076,-0.16889 0.0751,-0.11505 0.14918,-0.22937 0.22205,-0.34438 0.0378,-0.0582 0.0743,-0.11647 0.11076,-0.17469 0.0704,-0.11277 0.1404,-0.22576 0.20944,-0.3379 0.0365,-0.0597 0.0722,-0.11944 0.10842,-0.17832 0.0669,-0.11084 0.1328,-0.22071 0.19752,-0.33072 0.0365,-0.0618 0.0712,-0.12295 0.10686,-0.18406 0.063,-0.10785 0.1248,-0.21495 0.18564,-0.32206 0.0365,-0.0633 0.0712,-0.12575 0.10686,-0.1891 0.0587,-0.10502 0.11661,-0.2092 0.17453,-0.31344 0.0349,-0.064 0.0698,-0.12804 0.10393,-0.19199 0.0558,-0.10207 0.11077,-0.20418 0.16498,-0.30556 0.0349,-0.0661 0.0691,-0.13153 0.10335,-0.19699 0.0527,-0.0992 0.10472,-0.19843 0.15522,-0.29693 0.0333,-0.0647 0.0661,-0.12874 0.0995,-0.19339 0.0497,-0.0984 0.10022,-0.19701 0.14917,-0.29478 0.0333,-0.0661 0.0653,-0.13154 0.0973,-0.19625 0.0468,-0.0942 0.0944,-0.18838 0.13884,-0.28112 0.0357,-0.0719 0.0698,-0.14311 0.10394,-0.21354 0.0423,-0.0863 0.084,-0.17329 0.1248,-0.25881 0.0365,-0.077 0.0727,-0.15241 0.10842,-0.22864 0.0371,-0.0784 0.0751,-0.15749 0.11135,-0.23438 0.0394,-0.0849 0.078,-0.1682 0.11661,-0.25163 0.032,-0.0682 0.0646,-0.13802 0.0958,-0.20562 0.0484,-0.10418 0.095,-0.20706 0.14255,-0.30987 0.0199,-0.0439 0.0408,-0.0898 0.0608,-0.13364 0.0677,-0.14821 0.13454,-0.29406 0.19976,-0.43856 0.21314,-0.46662 0.94243,-0.23582 0.82732,0.26383 -0.0765,0.33001 -0.15971,0.66074 -0.2473,0.99144 -0.0137,0.0503 -0.029,0.10071 -0.0423,0.15172 -0.0796,0.29047 -0.16263,0.58091 -0.25025,0.87065 -0.01,0.0287 -0.0195,0.0573 -0.0275,0.0863 -0.0973,0.31704 -0.20051,0.63339 -0.30969,0.94902 -9.1e-4,0.005 -0.004,0.008 -0.004,0.014 -0.11506,0.33431 -0.23765,0.66721 -0.36614,0.99863 v 0 c -0.22353,0.67078 -0.50797,1.31641 -0.93944,2.15688 -0.15893,0.32351 -0.32307,0.64562 -0.49536,0.96267 -0.0136,0.0229 -0.0136,0.0452 -0.01,0.0668 0.002,0.007 0.004,0.0123 0.005,0.0179 0.004,0.0123 0.0137,0.0239 0.0224,0.0329 0.005,0.005 0.0117,0.0123 0.0176,0.0176 0.0156,0.0105 0.032,0.0158 0.0497,0.0181 h 4.6e-4 c 0.0224,-0.001 0.0452,-0.007 0.0653,-0.0253 1.03675,-0.8836 2.08163,-1.92033 3.05454,-3.12602 2.96019,-3.68752 5.58769,-10.50177 5.80158,-16.41515 0.066,-1.85922 0.0698,-4.070722 0.0342,-6.408765 z m -29.4565,32.491694 c -4.71215,0 -8.53159,-1.46595 -8.53159,-3.27483 0,-1.80889 3.81944,-3.27558 8.53159,-3.27558 4.71137,0 8.53156,1.46669 8.53156,3.27558 0,1.80888 -3.82019,3.27483 -8.53156,3.27483 z m 20.22312,-40.102557 c 0.0572,0 0.21166,0.01579 0.42778,0.03876 -0.40253,-0.08051 -0.57856,-0.03876 -0.42778,-0.03876"
       style="fill:#d39a72;fill-opacity:1;fill-rule:nonzero;stroke:none;stroke-width:0.13333331"
       id="path74"
       inkscape:connector-curvature="0" />
    <path
       d="m 155.35558,80.639445 c 1.29668,0.660716 2.64905,1.22653 4.06082,1.64353 0.20942,0.06612 0.14918,0.363067 -0.0682,0.355157 -2.78049,-0.136626 -5.35302,-0.772157 -7.79263,-2.110128 -0.0214,-0.01228 -0.0304,-0.03736 -0.0513,-0.04963 0.12324,2.019541 -0.81918,4.753011 -2.67059,7.197442 -0.24286,0.322116 -0.76791,0.09488 -0.66988,-0.292597 0.57632,-2.254664 1.15631,-6.471325 -0.69512,-11.245171 -0.01,-0.04525 -0.0137,-0.09067 -0.0216,-0.135925 0.09,-0.89654 1.13106,-10.142288 6.97051,-11.034514 1.65539,-0.255959 3.54469,-0.974202 6.59031,1.131647 1.46748,1.011559 4.06526,5.372755 5.29808,7.540393 0.1404,0.248032 -0.19678,0.487452 -0.41813,0.301227 -1.59967,-1.320714 -4.57249,-3.691098 -6.53978,-4.661687 -3.38203,-1.676608 -7.48963,-0.495362 -8.64148,6.05359 -0.0473,0.255958 0.29853,0.409089 0.4686,0.206342 0.9855,-1.151764 3.11841,-3.084313 6.20708,-2.911049 1.76158,0.09927 3.4808,1.131629 4.75148,2.126684 0,0 0.004,0 0.004,0.0035 0.811,0.516197 1.6123,1.052529 2.40991,1.589598 0.004,0.0035 0.01,0.0035 0.01,0.0087 0.38397,0.189805 1.17709,0.713929 1.10061,0.709598 -1.97546,-0.0984 -6.07861,-0.491048 -6.35633,0.401196 -0.055,0.185471 -0.0254,0.367382 0.1753,0.388218 1.10506,0.119438 5.12725,0.470211 7.26833,1.267518 0.11134,0.04104 0.0855,0.198433 -0.0297,0.206342 -1.64645,0.119965 -7.45622,0.540665 -11.19251,0.636268 -0.38023,0.0071 -0.49979,0.499694 -0.16712,0.672941"
       style="fill:#282828;fill-opacity:1;fill-rule:nonzero;stroke:none;stroke-width:0.13333331"
       id="path76"
       inkscape:connector-curvature="0" />
    <path
       d="m 259.49532,224.45913 c 0.80206,8.32116 -4.21453,24.67019 -8.65931,28.21322 -0.19603,0.15663 -0.41366,0.27247 -0.64386,0.35085 0.20047,3.58039 0.11487,8.82086 -1.70218,11.50542 -3.8521,5.68982 -9.65742,7.21399 -11.52963,7.56915 -1.94129,1.27974 -9.26683,6.87464 -25.15287,6.87464 -0.44337,0 -0.89118,-0.003 -1.34717,-0.008 -18.03974,-0.2646 -35.37767,-9.57577 -50.28639,-18.38009 -17.74046,8.4283 -46.67118,19.28667 -72.389204,19.28667 -3.565455,0 -7.131689,-0.17685 -10.685267,-0.56147 -15.266668,-1.65578 -20.520927,-7.95957 -22.880326,-9.41761 -3.181514,0.0949 -12.472081,-0.10281 -16.08139,-5.18654 -1.04044,-1.46164 -4.969808,-6.20241 -5.421337,-6.72296 -0.264385,-0.30554 -6.539797,-7.65613 -8.02808,-22.60465 -0.32897,-3.29568 -0.07644,-19.80935 7.780777,-26.61068 -0.09809,-0.2854 -0.136697,-0.59096 -0.09438,-0.90442 4.662366,-34.46167 25.747728,-58.95358 28.35369,-60.21749 0.447805,-0.21856 0.784984,-0.97849 1.033028,-1.53569 0.135917,-0.30196 0.263625,-0.58666 0.426277,-0.85914 0.937964,-1.56086 3.131026,-2.29202 5.903326,-3.08503 0.439653,-0.12786 1.027841,-0.29693 1.271439,-0.38825 0.418105,-0.27247 22.53946,-9.54699 25.252361,-10.62902 6.527136,-2.59327 10.574596,-4.13399 11.222926,-5.50503 1.04122,-2.20936 3.33155,-2.86215 5.67388,-3.35754 0.0468,-0.007 0.081,-0.0497 0.0854,-0.0984 0.081,-1.59896 0.61788,-2.86577 1.63756,-3.86583 0.0772,-0.074 0.15814,-0.14803 0.23913,-0.22287 1.01074,-0.90443 2.31188,-1.44941 3.69394,-1.55653 0.09,-0.008 0.13221,-0.10787 0.0722,-0.17329 -0.39658,-0.43422 -0.77607,-0.87567 -1.13402,-1.32215 -3.45557,-4.29862 -6.11722,-11.40981 -6.62521,-17.574825 h -0.0297 c -1.67617,0 -3.25431,-0.834701 -4.33339,-2.284113 -1.85141,-2.489734 -5.234195,-13.156165 -4.89334,-16.319559 0.0431,-0.383921 0.0944,-0.755618 0.16264,-1.115091 0.01,-0.04964 -0.0214,-0.09927 -0.0682,-0.115755 -1.228344,-0.433537 -2.218299,-1.366734 -2.687652,-2.581058 -0.64388,-1.664365 -0.200521,-3.489069 1.122141,-4.703394 0.02968,-0.02437 0.04232,-0.06173 0.02968,-0.09927 -0.276997,-0.887912 -0.251762,-1.870726 0.183504,-2.837 0.439632,-0.974185 1.279577,-1.730522 2.273977,-2.184176 l 5.10575,-2.328625 v -0.06542 c -0.09,-0.02087 -0.1835,-0.04157 -0.27777,-0.06261 C 104.76339,62.45772 93.045839,59.42662 87.337808,51.712225 80.393283,42.326257 83.558475,33.012933 88.898866,27.338933 c 0.952063,-1.007245 0.947637,-1.03599 0.819149,-1.750656 -0.430742,-2.440837 0.230942,-5.809153 3.56249,-9.21195 2.947607,-3.011001 6.38904,-2.457394 8.931875,-2.841315 2.40174,-0.367399 4.66681,-0.710333 8.01098,-3.068492 4.54279,-3.2000686 10.56198,-7.9121087 18.95618,-7.9121087 4.01402,0 8.01542,1.271833 12.32353,2.9944446 4.14625,1.6514397 7.23492,3.2000855 9.7176,4.4431378 3.75783,1.8786353 6.21079,3.5056263 8.8383,3.5056263 0.59337,0 1.22019,-0.04964 1.91086,-0.152411 0.93869,-0.136626 1.88111,-0.206324 2.80647,-0.206324 4.62448,0 9.70273,0.859868 13.42639,4.134702 2.87555,2.531424 4.73959,6.190181 6.24942,9.973321 2.55918,6.400153 3.00103,12.700353 4.96314,15.149118 0.67802,0.846924 1.33083,1.590318 1.96206,2.30856 2.59781,2.952755 6.87622,6.566209 6.64153,12.669433 -0.17902,4.642271 -4.04372,8.82517 -10.38226,11.290456 -0.0423,0.01579 -0.0682,0.05735 -0.0637,0.103658 0.0252,0.355158 0.004,0.71391 -0.0682,1.064754 -0.0259,0.14101 -0.0637,0.281127 -0.10685,0.417718 -0.01,0.03665 0,0.0784 0.0297,0.102774 1.32712,1.214323 1.76603,3.039027 1.12659,4.70341 -0.47382,1.214306 -1.45932,2.147503 -2.68765,2.581042 -0.0513,0.01579 -0.0764,0.06612 -0.0682,0.115755 0.0638,0.359472 0.11954,0.7355 0.15815,1.11509 0.34088,3.163394 -3.04189,13.829825 -4.89259,16.31956 -1.0798,1.449429 -2.65795,2.284111 -4.33039,2.284111 h -0.004 c -0.50799,6.165023 -3.16964,13.276213 -6.62447,17.574843 -0.40548,0.50399 -0.83621,1.00007 -1.28403,1.48247 0.10686,-0.007 0.21314,-0.007 0.32007,-0.007 1.57369,0 3.07088,0.55719 4.20564,1.57739 0.0854,0.0747 0.16633,0.14873 0.24283,0.22718 1.01522,0.99576 1.55736,2.26256 1.6383,3.86154 0.004,0.0487 0.0386,0.0907 0.0855,0.0984 2.33787,0.49536 4.63264,1.14817 5.6731,3.35751 0.63571,1.3502 5.06341,2.91179 12.23371,5.95511 3.85657,1.56516 13.3135,5.50863 17.91571,7.44908 1.26326,0.5004 2.26952,0.90876 3.0805,1.24308 0.0468,-0.008 0.0889,-0.0176 0.1404,-0.0202 l -0.0297,0.0661 c 2.03859,0.85917 2.75154,1.24308 3.05453,1.44079 0.24284,0.0913 0.83175,0.26028 1.27066,0.38823 2.76861,0.79302 4.96538,1.52418 5.90411,3.08505 0.16185,0.27249 0.28963,0.55719 0.42181,0.85916 0.24804,0.55717 0.58893,1.31712 1.03675,1.53568 1.60335,0.77648 7.35001,8.06957 12.69485,17.72438 5.09311,9.20476 11.57274,23.71975 13.67519,40.7669 0.59784,0.58232 1.24991,1.31278 1.91085,2.23378 2.79459,3.89458 4.54279,9.30398 5.20003,16.08878 z m -12.47727,16.23759 c 0.99886,1.96561 8.22041,-0.97492 7.68718,-16.15059 -0.48644,-13.88374 -6.72693,-16.58842 -6.78634,-16.61721 -0.17082,-0.0663 -0.21388,-0.10344 -0.3587,-0.21066 -12.75428,-9.25869 -25.88811,-9.5355 -30.64477,-9.27522 -0.0252,0.78867 -0.14938,1.62698 -0.40475,2.49406 0.63573,1.00724 1.90641,3.56382 1.29221,7.07018 -0.57185,3.26189 -2.61041,6.3678 -6.05703,9.27453 2.28214,0.74336 4.60219,1.56947 6.92298,2.48612 14.6228,5.78976 24.06711,12.471 28.34922,20.92879 z m -2.65723,21.32492 c 1.70665,-2.06487 0.75086,-6.66904 -0.14117,-10.18759 -3.83876,-15.13905 -17.24139,-22.12656 -23.31999,-25.42945 -3.19491,-1.73481 -15.67218,-9.5276 -35.29819,-9.91152 -10.55756,-0.20632 -15.78285,4.95577 -34.36025,3.81551 -13.2192,-0.80881 -35.32347,-0.83399 -36.2362,-0.82177 -9.31657,0.37171 -17.314162,4.55892 -22.177049,6.94582 24.889939,2.67236 47.928479,17.14637 62.687929,26.42519 15.94027,10.01865 34.90982,20.29683 54.74974,20.59016 14.05098,0.20204 20.75635,-4.86015 23.09422,-6.64893 0.3067,-0.23509 0.69141,-0.39611 1.08352,-0.4414 0.21768,-0.0297 6.01029,0.38824 9.91737,-4.33602 z m 2.27403,-60.01477 c -4.39355,-26.28068 -18.21055,-45.76359 -22.02851,-50.05 0,0 -5.52387,5.06288 -5.88629,4.82706 -0.98103,-0.63196 2.81986,-7.82152 2.81986,-7.82152 0.0218,-0.0329 0.0505,-0.0576 0.0767,-0.0861 -0.0259,-2.63499 -2.79834,-3.04765 -4.17593,-2.75074 -1.2499,-0.35874 -14.95553,-7.09464 -31.65997,-13.90818 -0.75897,-0.30913 -1.60412,-0.21423 -2.30297,0.14452 -0.01,0.008 -0.0176,0.014 -0.0259,0.0208 -1.28776,1.23013 -3.87741,4.88961 -8.47959,7.81719 -0.004,0.003 -0.004,0.003 -0.01,0.003 -2.13291,1.1561 -6.0489,2.73346 -7.66936,3.36974 4.48263,1.78804 13.51328,4.86014 18.77273,6.78837 0.9855,0.35946 1.30114,1.58602 0.92162,2.53577 -0.0176,0.0461 -8.74469,24.15827 -13.1516,60.87818 -0.11506,0.94975 1.26253,0.46659 2.21905,0.22718 0.004,0 0.008,-0.003 0.0117,-0.003 0.01,-0.0176 0.0176,-0.0418 0.0259,-0.0582 l 8.39049,-14.58903 c 0.14919,-0.26025 0.3498,-0.48314 0.59337,-0.65641 l 16.49503,-11.83975 c 0.49016,-0.35085 1.11769,-0.48314 1.71849,-0.35947 0.19228,0.041 0.36763,0.11155 0.53768,0.19842 3.8477,-14.07784 11.91436,-26.96221 12.90355,-26.33815 0.98549,0.62332 -6.06968,13.29271 -9.24302,32.77207 -0.0216,0.12786 -0.0216,0.25167 -0.0513,0.37171 1.62048,-0.88 3.28031,-1.67658 4.96909,-2.35025 0.91717,-0.36739 1.97099,-0.074 2.54655,0.70241 0.0639,0.0868 0.7382,1.0159 1.27514,2.48614 4.76931,-0.3343 19.03341,0.23509 30.40635,7.66836 z m -33.05469,5.40152 c 0.18331,-0.95405 -0.008,-2.51491 -0.14566,-3.20007 l -13.6499,9.86121 c 2.01407,0.47017 4.82426,1.082 7.04699,1.71325 3.89002,-2.70904 6.21972,-5.58703 6.7485,-8.37439 z m -1.57441,-6.5619 c 0.98104,-2.00732 0.66987,-5.24908 0.22207,-6.47923 -1.91977,1.23878 -3.70289,2.78307 -5.29361,3.55525 -9.90921,4.81123 -13.37738,11.12509 -16.41407,14.31366 1.27509,0.17687 3.56991,0.59386 5.21265,0.90373 0.0848,-0.0861 16.23064,-12.17765 16.23064,-12.17765 0.0176,-0.0418 0.0252,-0.0789 0.0423,-0.11593 z m -9.46507,-4.37339 c 1.43701,-1.627 1.01074,-5.61576 -0.55032,-6.71866 0,0 -1.71923,2.47393 -4.12467,4.06355 -3.51943,2.33732 -8.20332,5.58701 -9.88396,7.42895 -2.1715,2.38261 -7.31956,11.56296 -7.31956,11.56296 1.19863,-0.28112 4.24797,-1.03242 5.36565,-1.11509 0.0474,-0.10366 2.69213,-3.44021 6.94452,-7.47858 2.64536,-2.5106 5.91226,-5.29797 9.56834,-7.74313 z M 193.75735,57.216624 c 0.21759,-5.66609 -2.50794,-7.226942 -6.10832,-11.719697 -3.60037,-4.492754 -4.70916,-10.794392 -7.32401,-17.046432 -2.61934,-6.252021 -8.85985,-13.334445 -17.87712,-12.01731 -7.64856,1.119404 -10.34884,-2.683853 -22.34787,-7.4699416 -11.9953,-4.7860883 -20.36422,-1.3214323 -27.64146,3.8068536 -7.94267,5.595637 -11.96932,2.246737 -16.08211,6.446157 -4.653454,4.753729 0.972851,5.277837 -3.714748,10.258061 -4.68836,4.984502 -7.0938,12.747777 -1.855883,19.830201 4.730675,6.392244 14.942861,9.122082 16.226921,9.444197 0.0677,0.01579 0.13591,-0.02876 0.13591,-0.09927 0.0216,-1.020206 0.0304,-7.623089 -2.77678,-8.610217 -4.15439,-1.461636 -8.163954,-4.971577 -10.203276,-8.539746 -0.05928,-0.11137 0.0936,-0.227178 0.187983,-0.135924 4.491563,4.236812 12.140103,4.769566 17.292613,3.596213 2.13738,-0.486715 -9.07295,-3.468234 -12.92509,-14.803992 -0.02519,-0.0784 0.06375,-0.153113 0.124022,-0.08699 4.790088,4.86517 11.303868,8.168769 18.162998,9.700156 10.34885,2.308561 9.09005,0.136627 8.66377,-0.135924 -0.82359,-0.516216 -11.65368,-10.547081 -12.08888,-21.201251 0.0214,0 4.30366,9.53908 11.77326,14.267642 11.07367,7.011971 22.05378,7.449824 19.23392,-4.042677 -0.0304,-0.119965 0.1404,-0.18549 0.20052,-0.07401 2.59782,4.748713 10.04954,9.885662 17.77907,12.47891 5.78378,1.944773 6.51751,1.011577 12.72831,4.137579 5.31514,2.672365 9.04326,9.159492 12.84861,10.229297 0.11077,0.02876 0.10609,0.181911 -0.01,0.202045 -2.98991,0.557905 -6.01028,0.219269 -8.41202,-1.329342 -0.0677,-0.04525 -0.16556,0 -0.16556,0.08261 l -0.11583,9.927333 c 0,0.04525 0.0349,0.09067 0.0809,0.103658 5.86175,1.651421 13.99156,-1.557275 14.20917,-7.19818 z m -9.53787,16.547458 c 0.27253,0.08191 0.48197,-0.24014 0.26436,-0.421314 l -4.36382,-3.671699 c -0.17452,-0.148203 -0.0722,-0.417 0.16634,-0.433539 l 2.60226,-0.156795 c 0.11524,-0.0035 0.14469,-0.153113 0.0431,-0.202028 l -5.90409,-2.68815 c -0.21313,-0.09927 -1.06272,3.493402 -1.08797,3.645813 l -1.13479,7.433285 c -0.0254,0.173282 0.14119,0.317766 0.32455,0.276777 l 4.24871,-1.593912 c 0.0214,-0.0035 0.0423,-0.0087 0.0637,-0.0087 0.20425,0 0.34533,0.214988 0.22207,0.383921 -0.86593,1.197767 -3.99323,5.124706 -4.11651,7.363534 -0.12403,2.192822 3.68503,3.943461 -0.1285,7.779813 -0.0297,0.02876 -0.0378,0.07051 -0.0252,0.107161 0.87854,2.71765 1.92419,1.581689 2.20938,1.197768 1.39468,-1.878618 4.32595,-11.525563 4.11207,-13.478964 -0.13221,-1.222235 -0.43891,-2.745677 -1.40289,-3.919013 -0.57629,-0.701704 -1.39097,-1.275428 -2.55099,-1.577392 -0.0513,-0.01228 -0.10686,-0.01999 -0.16264,-0.03297 l 0.19683,-1.667979 c 0.0209,-0.157497 0.19168,-0.260256 0.35349,-0.210657 z M 171.00473,211.0506 c 4.84951,-34.67589 10.41197,-52.58577 12.25077,-57.84274 -4.07343,-2.08931 -10.10972,-4.24114 -14.1579,-5.88464 2.48715,2.56882 5.54538,6.01258 7.28541,7.99044 0.004,0.008 0.01,0.0176 0.0137,0.025 0.38841,0.87568 0.43891,1.79234 0.28593,2.56449 -0.86593,4.30726 -6.72323,4.30726 -8.92817,4.30726 -2.06455,0 -6.22787,-0.23151 -10.88206,-1.77151 -6.09938,-2.01593 -10.72388,-5.29005 -13.76503,-9.42838 -0.0423,-0.0576 -0.13221,-0.0576 -0.17531,0 -3.96279,5.34833 -9.49479,9.47367 -16.07246,11.64563 -4.00587,1.32576 -8.78335,2.11878 -12.78399,2.11878 -2.01779,0 -7.11534,0.14821 -7.9048,-3.78673 -0.33269,-1.63994 0.88748,-4.19151 3.12287,-5.22826 0,0 0.004,0 0.01,-0.003 0.2265,-0.13242 0.66543,-0.57804 1.16893,-1.13955 0.004,-0.003 5.1488,-8.36647 10.75807,-10.38602 0.0936,-0.0366 0.0936,-0.161 -0.004,-0.19413 -1.81282,-0.55288 -11.65815,-4.5711 -17.77016,-10.92666 -0.77237,-0.80094 -1.97992,-1.08202 -3.03299,-0.67726 -12.750583,4.94711 -29.872393,13.33446 -31.122284,13.69323 -4.150678,-0.40046 -4.094985,1.8175 -3.668708,2.54003 0,0 4.470034,8.54408 3.463741,9.13434 -4.905223,-7.01628 -7.485913,-5.38496 -8.394938,-4.33171 -2.307413,2.67596 -6.078595,7.60655 -10.002777,14.38773 -4.897032,8.46135 -9.333643,20.91147 -11.939585,37.31443 10.523376,-4.54309 23.320721,-7.98257 40.784176,-7.28876 -0.362414,-12.01303 -9.888407,-36.77379 -8.71874,-37.26914 1.018929,-0.42922 12.714936,24.9175 12.997145,37.77671 0.750819,0.11154 3.459274,0.0418 5.3018,4.49708 0.951321,2.29634 1.940532,7.80067 1.344194,13.92113 -0.311907,3.15044 3.105013,5.42234 6.022882,3.99737 4.999544,-2.44518 9.951544,-4.23681 18.090244,-4.72426 0.0214,0 0.0387,0 0.0603,0 0.21314,-0.003 25.5769,0.23942 39.18376,1.03244 5.10648,0.29693 8.48034,-0.21929 11.48364,-0.79302 2.82354,-0.53705 5.31069,-2.50627 5.69909,-5.26924 z m 6.3727,-81.59559 c 0.17452,-0.39255 0.22131,-1.05326 -0.26885,-2.09791 -0.47306,-1.00366 -5.73327,-1.28836 -6.16401,-2.07346 -0.43072,-0.78006 0.54215,-3.14687 -0.38766,-4.05922 -0.0343,-0.0324 -0.0682,-0.0618 -0.10258,-0.0949 -0.79388,-0.71035 -2.14996,-0.61975 -2.81092,0.18978 -3.5662,4.36911 -8.68903,6.32251 -12.48174,7.60656 -0.0297,0.0668 -0.0423,0.1 -0.0727,0.1617 0.67432,1.74636 0.19681,3.82341 -0.60527,5.68189 -0.0343,0.0784 0.0342,0.16101 0.12324,0.14452 0.78945,-0.16907 1.59152,-0.30125 2.38914,-0.48316 2.00439,-0.45435 3.94124,-1.0777 5.82682,-1.87502 0.0764,-0.0287 0.17531,0.0626 0.0981,0.12435 -2.7857,2.13456 -6.65864,4.87238 -10.38672,4.73218 -0.84067,-0.0329 0.48641,-7.11908 -3.76227,-7.0242 -1.04492,0.0244 -2.17151,0.041 -3.37907,0.0703 -1.02337,0.0244 -2.69953,0.0324 -3.72367,0.007 -1.30037,-0.0374 -2.50348,-0.0374 -3.61669,-0.0784 -4.36829,-0.16539 -2.72181,6.99113 -3.55804,7.0242 -3.73258,0.14013 -7.60551,-2.59759 -10.39119,-4.73215 -0.0765,-0.0619 0.0259,-0.15312 0.0981,-0.12435 1.88559,0.79732 3.8269,1.42064 5.82685,1.87504 0.80207,0.18187 1.59967,0.31417 2.39355,0.48313 0.0854,0.0176 0.15366,-0.0661 0.11953,-0.14452 -0.76788,-1.77584 -1.23726,-3.75367 -0.68324,-5.45545 -0.0765,-0.14802 -0.11506,-0.23077 -0.1917,-0.38392 -3.78824,-1.28402 -8.91478,-3.23744 -12.48543,-7.61085 -0.66096,-0.80955 -2.01333,-0.90013 -2.81093,-0.1898 -0.0343,0.0329 -0.0682,0.0626 -0.0981,0.0949 -0.93426,0.91234 0.0387,3.27915 -0.39285,4.0592 -0.43074,0.78512 -5.68574,1.06982 -6.15956,2.07349 -0.49463,1.04462 -0.44782,1.70533 -0.2733,2.0979 0.1328,0.29692 4.22345,7.10254 18.88043,10.01 2.29923,0.45796 3.27138,0.60248 4.83689,0.70172 0.0603,0.003 0.11076,0.054 0.10686,0.11575 -0.4946,6.54969 -9.13759,11.93465 -9.04773,11.75274 1.40362,-2.78736 5.82683,-7.63959 4.35565,-7.39588 -0.95579,0.504 -1.80019,0.37171 -3.5536,1.24308 -7.40943,3.6832 -12.00792,12.18197 -15.08769,13.38765 -3.07979,1.2021 3.83877,3.3036 15.54368,-0.52053 10.66893,-3.48118 15.22882,-11.1409 17.01193,-15.05634 0.0297,-0.0663 -0.0176,-0.13592 -0.0944,-0.14451 -2.28218,-0.17328 -4.48266,-1.35813 -5.91597,-3.68754 -0.32824,-0.52411 0.10257,-0.99502 0.64833,-0.67295 3.78752,2.24603 9.20145,2.45668 12.97636,-0.087 0.0682,-0.0452 0,0.45438 -0.0386,0.51621 -1.39915,2.39125 -3.57884,3.54372 -5.96793,3.87803 -0.0682,0.008 -0.11077,0.0661 -0.0891,0.12786 1.00628,3.36973 3.80904,9.45642 14.23885,12.90884 8.39864,2.77517 17.25847,1.35882 14.17869,0.15679 -3.07976,-1.20568 -5.51566,-6.50798 -10.77066,-10.63337 -0.93427,-0.73548 -3.30627,-1.54861 -4.72625,-1.4041 -1.46747,-0.24372 2.95578,4.6085 4.35493,7.39589 0.0944,0.18191 -10.06664,-5.12902 -7.76368,-11.80596 0.0137,-0.0416 0.0558,-0.0705 0.10257,-0.0747 1.58704,-0.0949 2.57701,-0.161 4.87551,-0.70168 14.14082,-3.32015 18.74377,-9.7131 18.87598,-10.01001 z m -1.42889,-79.304289 c 0,-0.03665 -0.0176,-0.0698 -0.0468,-0.09067 -11.34324,-7.701451 -54.13184,-7.701451 -65.47362,0 -0.0297,0.02087 -0.0466,0.05402 -0.0466,0.09067 0.0209,0.631971 0.23022,6.335436 0.23469,12.599682 0,0.08261 0.0891,0.135924 0.16185,0.09488 1.34345,-0.776471 11.06031,-5.909808 32.3848,-5.909808 22.55208,0 31.10519,5.191565 32.37587,6.062219 0.0727,0.04963 0.17082,-0.0035 0.17082,-0.09067 0.01,-6.264263 0.21313,-12.11223 0.23913,-12.756407 z m -3.40874,45.945522 c 0.32451,-9.035809 -0.82733,-26.346811 -0.82733,-26.346811 l -0.14118,-2.241686 c -0.004,-0.09138 -0.0505,-0.169599 -0.13592,-0.210675 -1.53582,-0.759914 -3.63009,-1.631287 -6.47517,-2.432944 -0.4055,-0.111371 -6.41131,-5.879623 -14.07697,-2.237389 -2.3208,-0.161706 -4.85025,-0.252346 -7.62255,-0.25666 v -0.0035 c -0.004,0 -0.0136,0.0035 -0.0176,0.0035 -0.01,0 -0.0137,-0.0035 -0.0214,-0.0035 v 0.0035 c -0.0387,0 -0.0772,0 -0.11525,0 -0.0386,0 -0.0764,0 -0.11953,0 v -0.0035 c -0.004,0 -0.0136,0.0035 -0.0176,0.0035 -0.01,0 -0.0137,-0.0035 -0.0214,-0.0035 v 0.0035 c -4.02223,0.0087 -5.49786,-0.01228 -8.59101,0.297647 -3.46372,-1.891561 -7.80157,-1.548627 -13.22291,2.271187 -3.25056,0.772139 -4.45739,1.416333 -6.36005,2.358159 -0.081,0.04104 -0.27331,2.452361 -0.27331,2.452361 0,0 -1.1563,17.311002 -0.83176,26.346811 0.21316,5.913397 2.84063,12.727647 5.80085,16.415177 0.97285,1.20567 2.01854,2.2424 3.05453,3.12599 0.0899,0.0784 0.22205,-0.0252 0.16634,-0.13224 -1.40734,-2.58896 -2.35421,-5.42596 -2.90081,-8.19681 -0.0682,-0.35588 0.47381,-0.50829 0.62754,-0.17399 2.12844,4.71203 8.26274,13.83054 13.81628,16.96448 1.60784,0.90444 5.31516,2.07273 8.71427,2.13456 v 0.003 c 0.01,0 0.0137,0 0.0214,0 0.004,0 0.0137,0 0.0176,0 v -0.003 c 0.0386,0 0.081,-0.003 0.11954,-0.003 0.0378,0 0.0764,0.003 0.11525,0.003 v 0.003 c 0.01,0 0.0136,0 0.0214,0 0.004,0 0.0137,0 0.0176,0 v -0.003 c 3.40432,-0.0618 7.13169,-1.2136 8.71427,-2.13456 8.06669,-4.69911 11.27492,-11.33937 13.39891,-16.03488 0.21316,-0.46657 0.94243,-0.2358 0.82732,0.26388 -0.56293,2.44085 -1.44594,4.90614 -2.68322,7.18164 -0.0549,0.10281 0.0764,0.20632 0.16633,0.12803 1.04119,-0.88359 2.08164,-1.92032 3.05453,-3.126 2.96468,-3.68753 5.59217,-10.50178 5.80086,-16.415171 z M 146.7839,259.85326 c 1.15186,-0.73908 1.37393,-2.23811 0.21388,-2.96929 -0.01,-0.003 -34.12557,-30.06667 -68.570469,-26.04054 -13.548184,1.58171 -23.879209,9.015 -30.713089,16.17579 -3.335994,3.48908 -7.13241,9.96828 -5.251275,14.36255 0.187789,0.43353 0.375771,0.79226 0.55921,1.05255 2.204919,3.10588 8.838297,1.86637 12.38741,1.67656 0.49016,-0.0245 0.972148,0.11154 1.369467,0.38827 0.07644,0.0542 7.882489,7.46636 24.616652,9.2134 25.657864,2.67956 52.344284,-5.49712 65.388214,-13.85929 z M 111.05496,77.546485 c 0.1835,0.04104 0.35424,-0.103478 0.32899,-0.276794 l -1.13923,-7.433268 c -0.0259,-0.152411 -0.87486,-3.745029 -1.08798,-3.645813 l -5.89964,2.688149 c -0.10257,0.04894 -0.0765,0.197714 0.0386,0.202046 l 2.60599,0.156796 c 0.23467,0.01579 0.33715,0.285406 0.16262,0.43352 l -4.36383,3.6717 c -0.21312,0.181174 -0.01,0.503271 0.26439,0.421313 l 6.07416,-1.87504 c 0.16185,-0.04963 0.3327,0.05314 0.34978,0.210657 l 0.19678,1.667961 c -0.0558,0.01228 -0.11135,0.02087 -0.16263,0.03297 -1.44146,0.376011 -2.35865,1.181246 -2.94312,2.126667 -0.66098,1.074119 -0.89564,2.333728 -1.01076,3.369754 -0.2094,1.953403 2.71662,11.600329 4.11653,13.478947 0.28072,0.383921 1.32563,1.519882 2.2094,-1.197768 0.0136,-0.03665 0,-0.0784 -0.0259,-0.10716 -3.81723,-3.836336 -0.01,-5.586992 -0.12772,-7.779797 -0.12324,-2.238827 -3.12656,-5.789738 -3.99251,-6.98754 -0.0682,-0.09067 -0.0558,-0.1941 0,-0.272481 0.055,-0.0784 0.16633,-0.128032 0.28593,-0.103657 z M 85.111176,225.99123 c 2.823565,-6.0004 2.149966,-14.1771 1.284056,-19.35572 -0.379515,-2.26687 -2.239103,-4.05058 -4.594057,-4.35183 -3.079779,-0.39688 -6.078614,-0.57444 -8.996463,-0.57444 -14.789164,0 -26.583219,4.66672 -34.901657,9.41543 -7.47776,4.27057 -8.735802,14.96146 -8.424636,22.81602 0.499071,12.62776 6.675694,16.38211 8.5353,14.22234 1.574416,-1.8297 3.489716,-3.86149 5.742176,-5.92989 6.854667,-6.29374 18.290755,-14.15265 33.864903,-15.84938 2.504209,-0.2725 4.990614,-0.40476 7.490378,-0.39253"
       style="fill:#282828;fill-opacity:1;fill-rule:nonzero;stroke:none;stroke-width:0.13333331"
       id="path78"
       inkscape:connector-curvature="0" />
    <path
       d="m 254.70523,224.54613 c 0.53323,15.17567 -6.68832,18.1162 -7.68718,16.15059 -4.28211,-8.45779 -13.72642,-15.13903 -28.34922,-20.92879 -2.32079,-0.91665 -4.64084,-1.74276 -6.92298,-2.48612 3.44662,-2.90673 5.48518,-6.01264 6.05703,-9.27453 0.6142,-3.50636 -0.65648,-6.06294 -1.29221,-7.07018 0.25547,-0.86708 0.3795,-1.70539 0.40475,-2.49406 4.75666,-0.26028 17.89049,0.0176 30.64477,9.27522 0.14489,0.10716 0.18799,0.14452 0.3587,0.21066 0.0593,0.0286 6.2999,2.73347 6.78634,16.61721"
       style="fill:#ffffff;fill-opacity:1;fill-rule:nonzero;stroke:none;stroke-width:0.13333331"
       id="path80"
       inkscape:connector-curvature="0" />
    <path
       d="m 224.60634,151.95687 c 3.81796,4.28641 17.63496,23.76932 22.02851,50.05 -11.37299,-7.43325 -25.63706,-8.00266 -30.40639,-7.66835 -0.53693,-1.47027 -1.21126,-2.39917 -1.27512,-2.48615 -0.57557,-0.77649 -1.62939,-1.06982 -2.54655,-0.70241 -1.68878,0.67365 -3.34862,1.47026 -4.9691,2.35026 0.0297,-0.11996 0.0297,-0.24374 0.0513,-0.37172 3.17336,-19.47933 10.22853,-32.14877 9.24304,-32.77207 -0.9892,-0.62408 -9.0559,12.2603 -12.90355,26.33814 -0.17005,-0.0868 -0.34536,-0.15732 -0.53766,-0.19843 -0.60083,-0.12382 -1.22835,0.008 -1.71851,0.35949 l -16.49501,11.83975 c -0.24362,0.17328 -0.44413,0.39614 -0.5934,0.6564 l -8.39047,14.58904 c -0.01,0.0176 -0.0176,0.0418 -0.0259,0.0582 -0.004,0 -0.01,0.003 -0.0117,0.003 -0.95654,0.2394 -2.33414,0.72256 -2.21905,-0.22721 4.40691,-36.71989 13.13454,-60.83216 13.15163,-60.87818 0.37949,-0.94975 0.0637,-2.17627 -0.92165,-2.53575 -5.25946,-1.92822 -14.29009,-5.00034 -18.77272,-6.78837 1.62043,-0.63628 5.53646,-2.21366 7.66933,-3.36976 0.004,0 0.004,0 0.01,-0.003 4.60223,-2.92756 7.19185,-6.58706 8.47961,-7.81718 0.01,-0.008 0.0176,-0.014 0.0259,-0.0207 0.69882,-0.35875 1.54398,-0.45366 2.30296,-0.14453 16.70446,6.81355 30.41005,13.54942 31.65992,13.90818 1.37764,-0.29693 4.14998,0.11593 4.17595,2.75073 -0.0259,0.0289 -0.055,0.0531 -0.0764,0.0863 0,0 -3.80092,7.18955 -2.8199,7.8215 0.36245,0.23582 5.8863,-4.82708 5.8863,-4.82708"
       style="fill:#ffffff;fill-opacity:1;fill-rule:nonzero;stroke:none;stroke-width:0.13333331"
       id="path82"
       inkscape:connector-curvature="0" />
    <path
       d="m 187.64903,45.496927 c 3.60038,4.492755 6.32591,6.053607 6.10832,11.719697 -0.21762,5.640906 -8.34739,8.849602 -14.20917,7.19818 -0.046,-0.01228 -0.081,-0.05823 -0.081,-0.103657 l 0.11583,-9.927334 c 0,-0.08261 0.0981,-0.128033 0.16556,-0.08261 2.40173,1.548612 5.4221,1.88723 8.41202,1.329326 0.11524,-0.02017 0.11954,-0.173283 0.01,-0.202029 -3.80534,-1.069804 -7.53345,-7.556932 -12.84863,-10.229297 -6.21077,-3.126001 -6.94452,-2.192805 -12.72829,-4.137579 -7.72952,-2.593266 -15.18126,-7.730196 -17.77907,-12.47891 -0.0603,-0.111371 -0.23096,-0.04596 -0.20052,0.07401 2.81984,11.492501 -8.16025,11.054649 -19.23393,4.042677 -7.46959,-4.728561 -11.75172,-14.267642 -11.77324,-14.267642 0.43518,10.654171 11.26526,20.685036 12.08887,21.201251 0.42629,0.272498 1.68507,2.444451 -8.66376,0.135925 -6.85914,-1.531388 -13.37292,-4.834986 -18.163032,-9.700138 -0.06027,-0.06612 -0.149366,0.0087 -0.124022,0.08699 3.852144,11.335758 15.062484,14.317259 12.925114,14.803992 -5.15251,1.173336 -12.801046,0.640582 -17.292613,-3.596214 -0.09438,-0.0912 -0.247302,0.02438 -0.187982,0.135925 2.039322,3.56817 6.048895,7.078092 10.203275,8.539729 2.80722,0.987128 2.79831,7.590028 2.77679,8.610216 0,0.07051 -0.0682,0.115755 -0.13592,0.09927 -1.28406,-0.322079 -11.496245,-3.051936 -16.22694,-9.444161 -5.237918,-7.082425 -2.832477,-14.8457 1.855882,-19.830221 4.687619,-4.980206 -0.938705,-5.504314 3.714749,-10.258043 4.112799,-4.19942 8.139439,-0.85052 16.082109,-6.446157 7.27724,-5.1283029 15.64618,-8.5929413 27.64148,-3.8068536 11.99902,4.7860726 14.69931,8.5893466 22.34787,7.4699416 9.01727,-1.317135 15.25777,5.765289 17.87709,12.017311 2.61488,6.252039 3.72365,12.553678 7.32403,17.046432"
       style="fill:#ffffff;fill-opacity:1;fill-rule:nonzero;stroke:none;stroke-width:0.13333331"
       id="path84"
       inkscape:connector-curvature="0" />
    <path
       d="m 183.2555,153.20786 c -1.8388,5.25697 -7.40126,23.16685 -12.25077,57.84274 -0.3884,2.76296 -2.87553,4.73218 -5.69912,5.26923 -3.00326,0.57373 -6.37712,1.08994 -11.48361,0.79302 -13.60686,-0.79302 -38.9706,-1.03675 -39.18374,-1.03242 -0.0216,0 -0.0387,0 -0.0603,0 -8.13872,0.48745 -13.09073,2.27908 -18.090251,4.72425 -2.917869,1.42498 -6.334828,-0.84694 -6.022902,-3.99742 0.596359,-6.12044 -0.392852,-11.62476 -1.344194,-13.92111 -1.842506,-4.45536 -4.550961,-4.3856 -5.3018,-4.49705 -0.282209,-12.85924 -11.978196,-38.20594 -12.997126,-37.77675 -1.169667,0.4954 8.356308,25.25613 8.718721,37.26917 -17.463435,-0.69378 -30.260799,2.74568 -40.784176,7.28876 2.605962,-16.40296 7.042553,-28.8531 11.939605,-37.31444 3.924162,-6.78119 7.695345,-11.7118 10.002777,-14.38772 0.908986,-1.05329 3.489715,-2.68461 8.394918,4.33169 1.006293,-0.59026 -3.463741,-9.13432 -3.463741,-9.13432 -0.426277,-0.72255 -0.481969,-2.94053 3.668727,-2.54009 1.249872,-0.35873 18.371701,-8.74607 31.122262,-13.69319 1.05309,-0.40476 2.26063,-0.12366 3.033,0.67725 6.11199,6.35555 15.95735,10.37379 17.77013,10.92668 0.0981,0.0329 0.0981,0.1575 0.004,0.19414 -5.60922,2.01953 -10.75358,10.38168 -10.75802,10.38599 -0.50355,0.56152 -0.94244,1.00728 -1.16895,1.13956 -0.004,0.003 -0.01,0.003 -0.01,0.003 -2.23537,1.03673 -3.45555,3.58831 -3.12283,5.22824 0.78943,3.93485 5.887,3.78674 7.90478,3.78674 4.00066,0 8.77814,-0.79301 12.78399,-2.11877 6.57768,-2.17196 12.10968,-6.29731 16.07248,-11.64563 0.043,-0.0576 0.13279,-0.0576 0.1753,0 3.04115,4.13833 7.66564,7.41243 13.76505,9.42838 4.65417,1.54 8.81748,1.7715 10.88206,1.7715 2.20492,0 8.06222,0 8.92816,-4.30725 0.15287,-0.77217 0.10257,-1.68883 -0.28594,-2.56452 -0.004,-0.008 -0.01,-0.0176 -0.0137,-0.025 -1.74003,-1.97785 -4.79827,-5.42164 -7.28541,-7.99046 4.0482,1.64353 10.08446,3.79536 14.15792,5.88466"
       style="fill:#ffffff;fill-opacity:1;fill-rule:nonzero;stroke:none;stroke-width:0.13333331"
       id="path86"
       inkscape:connector-curvature="0" />
    <path
       d="m 175.90176,50.060134 c 0.0299,0.02087 0.0468,0.05402 0.0468,0.09067 -0.0259,0.644177 -0.23021,6.492161 -0.23912,12.756424 0,0.08629 -0.0981,0.140134 -0.17082,0.09067 -1.27068,-0.870672 -9.82378,-6.062235 -32.37586,-6.062235 -21.3245,0 -31.04136,5.133335 -32.38483,5.909807 -0.0727,0.04104 -0.16185,-0.01228 -0.16185,-0.09488 -0.004,-6.264246 -0.21388,-11.967711 -0.23467,-12.599681 0,-0.03665 0.0176,-0.0698 0.0468,-0.09067 11.34178,-7.701451 54.13038,-7.701451 65.47362,0"
       style="fill:#ffffff;fill-opacity:1;fill-rule:nonzero;stroke:none;stroke-width:0.13333331"
       id="path88"
       inkscape:connector-curvature="0" />
    <path
       d="m 86.395232,206.63551 c 0.86591,5.17862 1.539509,13.35532 -1.284056,19.35572 -2.499764,-0.014 -4.986169,0.11996 -7.490378,0.39253 -15.574148,1.69673 -27.010236,9.55564 -33.864903,15.84938 -2.25246,2.0684 -4.16776,4.10019 -5.742176,5.92989 -1.859606,2.15977 -8.036229,-1.59458 -8.5353,-14.22234 -0.311166,-7.85456 0.946876,-18.54545 8.424636,-22.81602 8.318438,-4.74871 20.112493,-9.41543 34.901657,-9.41543 2.917849,0 5.916684,0.17756 8.996463,0.57444 2.354954,0.30125 4.214542,2.08496 4.594057,4.35183"
       style="fill:#ffffff;fill-opacity:1;fill-rule:nonzero;stroke:none;stroke-width:0.13333331"
       id="path90"
       inkscape:connector-curvature="0" />
    <path
       d="m 134.52645,108.39035 c 3.69394,1.8125 8.15579,2.2791 12.3191,1.61407 0.0176,-0.003 0.0431,-0.0123 0.0646,-0.0208 0.0209,-0.007 0.0466,0 0.072,-0.003 1.16078,-0.19412 3.62564,-0.99142 4.71806,-1.3588 0.20869,-0.074 -1.69325,2.4322 -4.47893,3.61345 -0.47752,0.20274 -0.90009,0.50399 -1.18601,0.91236 -0.88746,1.26392 -1.92791,2.30424 -2.91788,2.30424 -0.91272,0 -1.90639,-0.91668 -2.76341,-2.07705 -0.35051,-0.46661 -0.80279,-0.87137 -1.36498,-1.09856 -1.7705,-0.70171 -3.21716,-2.29564 -4.50939,-3.82771 -0.0297,-0.0329 0.004,-0.0784 0.0468,-0.0576"
       style="fill:#282828;fill-opacity:1;fill-rule:nonzero;stroke:none;stroke-width:0.13333331"
       id="path92"
       inkscape:connector-curvature="0" />
    <path
       d="m 142.98968,93.408076 c 0.0386,-0.0035 0.0772,-0.0087 0.11954,-0.01228 0.0386,0.0035 0.0809,0.0071 0.11525,0.01228 v 0.0035 c 0.004,0 0.0136,-0.0035 0.0216,-0.0035 0.004,0 0.0176,0 0.0176,0 0.81843,-0.07489 2.39729,-0.342951 3.99622,-1.36314 2.29107,-1.46595 3.60927,0.194118 4.71806,-0.585966 0.37951,-0.268148 0.57184,-0.570111 0.64834,-0.879984 0.004,-0.01579 0.004,-0.03244 0,-0.04964 -0.11076,-0.68085 -0.43891,-1.300596 -1.01074,-1.788066 -0.66988,-0.569392 -0.20052,-1.573059 0.70402,-1.494679 2.87035,0.251627 5.67759,1.465934 8.23675,2.775159 0.36242,0.185489 0.2176,0.726872 -0.19169,0.710315 -4.0311,-0.165389 -5.50304,1.643548 -5.92485,2.353863 -0.0817,0.140134 -0.004,0.322115 0.15737,0.3674 4.48337,1.309225 8.18994,-0.123648 9.31656,-0.648492 0.17004,-0.0784 0.37948,0.01228 0.39658,0.189786 0.46044,4.621453 -2.89264,14.288508 -7.65301,19.161558 -0.30672,0.31348 -0.82735,-0.0618 -0.59266,-0.43352 1.48829,-2.36249 3.52314,-6.50868 4.22272,-12.302025 0.0216,-0.20632 -0.21759,-0.355145 -0.41366,-0.24803 -0.49014,0.27248 -1.16449,0.54928 -1.75265,0.64849 -0.11584,0.0158 -0.21388,0.0826 -0.26513,0.186205 -2.33269,4.64516 -8.62516,7.08171 -14.60943,7.08171 -0.0431,0 -0.0855,-0.003 -0.12851,-0.003 v -0.003 c -0.004,0 -0.004,0 -0.004,0 v 0.003 h -0.004 c -0.004,0 -0.004,0 -0.004,0 v -0.003 c -0.004,0 -0.004,0 -0.004,0 v 0.003 c -0.0423,0 -0.0855,0.003 -0.12773,0.003 -5.98505,0 -12.27678,-2.43655 -14.61391,-7.08171 -0.0513,-0.103645 -0.14918,-0.169595 -0.26439,-0.186205 -0.58446,-0.0993 -1.26323,-0.37601 -1.75341,-0.64849 -0.19168,-0.106975 -0.43516,0.0416 -0.40919,0.24803 0.78424,6.500065 3.25059,10.926665 4.7344,13.086405 0.17082,0.24731 -0.18798,0.5162 -0.41811,0.30988 -5.11892,-4.60058 -8.82627,-14.977982 -8.34428,-19.822298 0.0216,-0.17686 0.23025,-0.268149 0.40105,-0.189786 1.12659,0.524827 4.82947,1.957717 9.31211,0.648492 0.16634,-0.04525 0.24282,-0.227196 0.15815,-0.367382 -0.41885,-0.710333 -1.89004,-2.519218 -5.92113,-2.353863 -0.41368,0.01578 -0.55925,-0.524826 -0.19246,-0.710333 2.55545,-1.309208 5.36269,-2.523514 8.23749,-2.775159 0.90454,-0.0784 1.36943,0.925287 0.70401,1.494697 -0.57184,0.487452 -0.90454,1.107198 -1.01592,1.788048 -0.004,0.01754 -0.004,0.03385 0,0.04964 0.0772,0.30989 0.26883,0.611836 0.64906,0.880002 1.1088,0.780066 2.427,-0.880002 4.72179,0.585948 1.59967,1.020206 3.17779,1.288355 3.99323,1.36314 0,0 0.0117,0 0.0209,0 0.004,0 0.0137,0.0035 0.0176,0.0035 z m 10.78776,7.445504 c 0.2436,-0.17329 0.0474,-0.53276 -0.24283,-0.44217 -2.15888,0.66503 -6.8725,1.70176 -10.41718,-0.457965 v -0.009 c -0.004,0 -0.01,0.003 -0.01,0.003 -0.004,0 -0.01,-0.003 -0.01,-0.003 v 0.009 c -3.54467,2.159725 -8.25828,1.122995 -10.41644,0.457965 -0.28961,-0.0907 -0.48643,0.26888 -0.2473,0.44217 1.10879,0.79299 2.72109,1.49469 4.58145,2.003 1.85958,0.50757 3.97094,0.81744 6.08229,0.81744 0,0 0.004,0 0.01,0 0,0 0.004,0 0.01,0 4.21901,0 8.44246,-1.23877 10.66001,-2.82044"
       style="fill:#282828;fill-opacity:1;fill-rule:nonzero;stroke:none;stroke-width:0.13333331"
       id="path94"
       inkscape:connector-curvature="0" />
    <path
       d="m 137.58914,80.928464 c -0.3067,2.940513 0.15366,5.359813 0.55031,6.78909 0.081,0.280391 -0.32382,0.433521 -0.49016,0.189804 -1.68137,-2.48614 -2.6364,-6.012619 -2.90896,-7.069481 -0.0386,-0.156796 -0.23098,-0.227195 -0.38469,-0.14522 -2.34605,1.22725 -4.82429,1.813181 -7.48594,1.945475 -0.21758,0.0071 -0.277,-0.293317 -0.0682,-0.355157 1.41178,-0.417 2.7597,-0.982814 4.05712,-1.64353 0.33269,-0.173282 0.21313,-0.665031 -0.16634,-0.672941 -3.69397,-0.08261 -9.24009,-0.334322 -10.87392,-0.413422 -0.11875,-0.0035 -0.14468,-0.161004 -0.0333,-0.201992 2.11137,-0.821774 5.8521,-1.379678 6.95269,-1.494714 0.20499,-0.02087 0.28592,-0.227196 0.17531,-0.388236 -0.12402,-0.177597 -0.7679,-0.520547 -1.56995,-0.615413 -1.73187,-0.202765 -5.31517,0.289001 -5.22977,0.243716 0.50724,-0.281126 1.01891,-0.541383 1.53137,-0.776471 0.01,-0.0035 0.0136,-0.0087 0.0216,-0.01228 0.98105,-0.75995 2.0178,-1.453744 3.10501,-2.060547 0.95952,-0.669344 2.09876,-1.268237 3.28031,-1.511954 0.0593,-0.01999 0.11505,-0.04104 0.17082,-0.06173 0.12773,-0.04525 0.23914,-0.04525 0.33716,-0.01578 0.0891,-0.0071 0.1835,-0.02438 0.27256,-0.02876 3.09314,-0.173282 5.22157,1.759267 6.20633,2.911048 0.17532,0.202747 0.51614,0.04963 0.4738,-0.206342 -1.1563,-6.548951 -5.25944,-7.730197 -8.64668,-6.053607 -1.96208,0.970607 -4.93938,3.340991 -6.53903,4.661704 -0.22206,0.186226 -0.55478,-0.05314 -0.41369,-0.301226 1.23283,-2.167655 3.83063,-6.528817 5.29363,-7.540393 3.05008,-2.105832 4.93569,-1.387588 6.5903,-1.131648 5.84021,0.892227 6.88511,10.137975 6.97053,11.034515 -0.004,0.04525 -0.0137,0.09067 -0.0176,0.135924 -0.2436,0.623324 -0.44412,1.234441 -0.60601,1.837648 -0.14041,0.49966 -0.25175,0.995758 -0.34089,1.474562 -0.0944,0.507587 -0.16634,0.999353 -0.21387,1.478177"
       style="fill:#282828;fill-opacity:1;fill-rule:nonzero;stroke:none;stroke-width:0.13333331"
       id="path96"
       inkscape:connector-curvature="0" />
    <path
       d="m 153.77744,100.85358 c 0.2436,-0.17329 0.0474,-0.53276 -0.24283,-0.44217 -2.15888,0.66503 -6.8725,1.70176 -10.41718,-0.457965 v -0.009 c -0.004,0 -0.01,0.003 -0.01,0.003 -0.004,0 -0.01,-0.003 -0.01,-0.003 v 0.009 c -3.54467,2.159725 -8.25828,1.122995 -10.41644,0.457965 -0.28961,-0.0907 -0.48643,0.26888 -0.2473,0.44217 1.10879,0.79299 2.72109,1.49469 4.58145,2.003 1.85958,0.50757 3.97094,0.81744 6.08229,0.81744 0,0 0.004,0 0.01,0 0,0 0.004,0 0.01,0 4.21901,0 8.44246,-1.23877 10.66001,-2.82044"
       style="fill:#ffffff;fill-opacity:1;fill-rule:nonzero;stroke:none;stroke-width:0.13333331"
       id="path98"
       inkscape:connector-curvature="0" />
    <path
       d="m 170.61037,168.85087 c 0,-1.05758 -0.88746,-1.91242 -1.97543,-1.91242 -0.0981,0 -0.1915,0.0176 -0.28148,0.0295 0.47753,-0.21498 1.01077,-0.33936 1.57369,-0.33936 2.08165,0 3.76671,1.63204 3.76671,3.64655 0,2.01523 -1.68506,3.65083 -3.76671,3.65083 -2.08164,0 -3.766,-1.6356 -3.766,-3.65083 0,-0.71033 0.21315,-1.37104 0.57556,-1.93256 -0.0468,0.161 -0.0809,0.33072 -0.0809,0.5083 0,1.05688 0.88672,1.91601 1.97917,1.91601 1.08798,0 1.97546,-0.85913 1.97546,-1.91601"
       style="fill:#282828;fill-opacity:1;fill-rule:nonzero;stroke:none;stroke-width:0.13333331"
       id="path100"
       inkscape:connector-curvature="0" />
    <path
       d="m 166.65577,191.95517 c -2.08166,0 -3.76674,-1.63061 -3.76674,-3.64583 0,-0.57012 0.1367,-1.10715 0.3795,-1.58599 -0.01,0.074 -0.0252,0.14891 -0.0252,0.23079 0,1.05326 0.88747,1.91242 1.97918,1.91242 1.08723,0 1.9747,-0.85916 1.9747,-1.91242 0,-1.05688 -0.88747,-1.91531 -1.9747,-1.91531 -0.10257,0 -0.19682,0.0176 -0.29039,0.0287 0.51612,-0.25594 1.10061,-0.40478 1.7237,-0.40478 2.08164,0 3.77044,1.6313 3.77044,3.64654 0,2.01524 -1.6888,3.64583 -3.77044,3.64583"
       style="fill:#282828;fill-opacity:1;fill-rule:nonzero;stroke:none;stroke-width:0.13333331"
       id="path102"
       inkscape:connector-curvature="0" />
    <path
       d="m 163.3881,211.77748 c -2.08167,0 -3.77043,-1.6313 -3.77043,-3.64655 0,-0.52053 0.11524,-1.01156 0.31561,-1.46162 -0.0176,0.10282 -0.0304,0.20633 -0.0304,0.31345 0,1.05328 0.88301,1.91244 1.97543,1.91244 1.09171,0 1.97472,-0.85916 1.97472,-1.91244 0,-1.05686 -0.88301,-1.91601 -1.97472,-1.91601 -0.26512,0 -0.51242,0.0542 -0.74264,0.14469 0.62755,-0.45436 1.40361,-0.72688 2.25245,-0.72688 2.0772,0 3.76674,1.63134 3.76674,3.64653 0,2.01526 -1.68954,3.64657 -3.76674,3.64657"
       style="fill:#282828;fill-opacity:1;fill-rule:nonzero;stroke:none;stroke-width:0.13333331"
       id="path104"
       inkscape:connector-curvature="0" />
    <path
       d="m 110.77125,91.471212 c -3.81797,-3.836334 -0.01,-5.586991 -0.12773,-7.779814 -0.12402,-2.238826 -3.1273,-5.789737 -3.99321,-6.987522 -0.0677,-0.09067 -0.055,-0.194118 0,-0.272498 0.0136,-0.01754 0.029,-0.03297 0.0468,-0.04736 -1.05978,1.408441 0.75306,12.144605 4.10018,15.161325 0,-0.02736 -0.008,-0.05402 -0.0259,-0.07401 z m -3.83431,-15.142629 0.79762,0.235825 c -0.27403,-0.160303 -0.53768,-0.254503 -0.79762,-0.235825"
       style="fill:#d39a72;fill-opacity:1;fill-rule:nonzero;stroke:none;stroke-width:0.13333331"
       id="path106"
       inkscape:connector-curvature="0" />
    <path
       d="m 176.6073,90.026115 c 0,0 0.47975,-0.72254 0.7998,-1.342286 0.32011,-0.619027 1.5997,-4.284272 2.2926,-7.536815 0.68916,-3.23241 -0.0267,-4.798296 -0.0349,-4.816992 -0.86817,1.199223 -3.99176,5.123987 -4.11503,7.361376 -0.10686,1.890124 2.704,3.453152 1.04118,6.305234 0.01,0.01754 0.0156,0.02947 0.0156,0.02947"
       style="fill:#d39a72;fill-opacity:1;fill-rule:nonzero;stroke:none;stroke-width:0.13333331"
       id="path108"
       inkscape:connector-curvature="0" />
    <path
       d="m 203.29075,186.49614 c 0.19228,0.041 0.36762,0.11155 0.53766,0.19843 2.97803,-10.89358 8.47887,-21.06678 11.27495,-24.82547 -4.49601,4.28138 -11.77399,15.53801 -25.64597,33.76999 l 12.11488,-8.78346 c 0.49012,-0.35084 1.11768,-0.48313 1.71848,-0.35949"
       style="fill:#b4b7b9;fill-opacity:1;fill-rule:nonzero;stroke:none;stroke-width:0.13333331"
       id="path110"
       inkscape:connector-curvature="0" />
    <path
       d="m 126.85931,162.65634 c -3.36422,1.11297 -7.26833,1.8434 -10.80408,2.0512 -1.51651,1.5666 -14.70747,15.49705 3.69468,7.56484 19.47975,-8.39669 23.18185,-21.26167 23.18185,-21.26167 -3.96279,5.34834 -9.49479,9.47368 -16.07245,11.64563"
       style="fill:#b4b7b9;fill-opacity:1;fill-rule:nonzero;stroke:none;stroke-width:0.13333331"
       id="path112"
       inkscape:connector-curvature="0" />
    <path
       d="m 165.10809,169.65681 c 0,0 -0.56888,-3.16556 3.12803,-4.12894 1.61378,-0.42059 0.6439,-2.24388 -0.32825,-3.31726 -0.0519,0 -0.1055,0 -0.15367,0 -2.06455,0 -6.22787,-0.23151 -10.88208,-1.77153 -6.04665,-1.99796 -10.64069,-5.23397 -13.68259,-9.32123 l -0.2577,-0.10716 c 0,0 2.12769,17.1327 22.17632,18.6461"
       style="fill:#b4b7b9;fill-opacity:1;fill-rule:nonzero;stroke:none;stroke-width:0.13333331"
       id="path114"
       inkscape:connector-curvature="0" />
    <path
       d="m 72.329412,162.75268 c -0.352761,-0.64992 -0.657999,-1.169 -0.9038,-1.53281 0.2911,0.49826 0.594856,1.01158 0.9038,1.53281 z m 40.132868,46.51349 c -10.91476,-0.69019 -16.742318,-5.05785 -23.635615,-17.94008 -6.983174,-13.04832 -12.500316,-21.8217 -16.497253,-28.57341 3.42511,6.3261 11.259317,25.13967 11.489537,35.63642 0.565178,0.0842 2.239843,0.0663 3.819466,1.95268 v 0 c 0.06455,0.0777 0.130067,0.15803 0.193833,0.24158 l 4.87e-4,0.001 c 0.06455,0.0835 0.127727,0.1703 0.191688,0.26025 0.0039,0.005 0.0078,0.014 0.0117,0.0176 0.05928,0.0855 0.118757,0.17328 0.177453,0.26532 0.0097,0.0105 0.0156,0.0239 0.02242,0.0353 0.05577,0.0868 0.110762,0.17543 0.165557,0.26817 0.0156,0.026 0.0312,0.0555 0.0468,0.0821 0.04602,0.0798 0.09204,0.1603 0.138062,0.24444 0.02301,0.0434 0.04602,0.09 0.06903,0.13382 0.03783,0.0719 0.07566,0.14241 0.112908,0.21713 0.03276,0.0656 0.06377,0.13522 0.09594,0.20273 0.0275,0.0582 0.05499,0.11365 0.08229,0.17328 0.0587,0.13013 0.116611,0.26386 0.173747,0.40186 0.05714,0.13733 0.113492,0.2876 0.170043,0.44648 0.05128,0.14364 0.102376,0.29911 0.152882,0.46015 0.0039,0.014 0.0097,0.0256 0.01365,0.0403 0.109202,0.35445 0.216103,0.74771 0.318596,1.17548 0.672838,2.80033 1.145916,7.11694 0.68918,11.79877 -0.311927,3.15044 3.105033,5.42236 6.022901,3.9974 0.440395,-0.21567 0.881532,-0.42421 1.324149,-0.62839 0.126947,-0.0589 0.253992,-0.11646 0.381718,-0.17398 0.42703,-0.19414 0.855537,-0.3854 1.289976,-0.56873 0.0199,-0.008 0.0394,-0.0158 0.0587,-0.0245 0.490145,-0.20563 0.985485,-0.40476 1.489025,-0.596 0.01,-0.003 0.0195,-0.008 0.029,-0.0123 0.50873,-0.192 1.0256,-0.37603 1.55363,-0.55217 3.30181,-1.10215 7.05073,-1.87504 11.9641,-2.16909 h 0.0603 c 0.21318,-0.003 25.57692,0.2394 39.18378,1.03241 5.10647,0.29695 8.48033,-0.21927 11.48361,-0.79301 2.82356,-0.53705 5.31071,-2.50629 5.69912,-5.26919 0.10764,-0.77004 0.21538,-1.52923 0.32378,-2.28269 -2.55916,7.20895 -16.99111,3.1483 -58.86625,0.49824"
       style="fill:#b4b7b9;fill-opacity:1;fill-rule:nonzero;stroke:none;stroke-width:0.13333331"
       id="path116"
       inkscape:connector-curvature="0" />
    <path
       d="m 223.31411,249.386 c -0.0891,0.0158 -0.17453,0.0245 -0.26439,0.0402 0,0 0.0965,-0.014 0.26439,-0.0402 z m 20.90859,2.44805 c -3.83951,-15.13905 -17.15671,-22.71107 -23.23457,-26.01467 -2.37502,-1.28909 -9.96861,-5.33896 -21.72403,-7.79206 8.10975,2.8018 19.62674,7.75756 26.87802,18.49441 6.96609,10.31413 -0.98178,12.71111 -2.82801,12.86427 20.74374,-1.7147 20.13402,5.10385 21.94611,8.01634 -0.14333,-1.83046 -0.59784,-3.8313 -1.03752,-5.56829"
       style="fill:#d39a72;fill-opacity:1;fill-rule:nonzero;stroke:none;stroke-width:0.13333331"
       id="path118"
       inkscape:connector-curvature="0" />
    <path
       d="m 85.111176,225.99123 v 0 c 0,0 -11.322479,-1.8578 -28.226684,3.4071 -8.992037,2.80034 -12.778059,7.1155 -16.298234,7.84596 -4.478927,0.92888 -6.694999,-0.0884 -7.9976,-4.41294 0.0078,0.37459 0.0156,0.74627 0.02905,1.10934 0.314871,8.44269 3.023326,12.91387 5.309951,14.30793 0.02905,-0.0289 0.05928,-0.0549 0.08619,-0.0855 1.574415,-1.82971 3.489716,-3.86151 5.742176,-5.92991 6.854687,-6.29375 18.290774,-14.15264 33.864903,-15.84937 2.504229,-0.27252 4.990634,-0.40478 7.490397,-0.39253"
       style="fill:#b4b7b9;fill-opacity:1;fill-rule:nonzero;stroke:none;stroke-width:0.13333331"
       id="path120"
       inkscape:connector-curvature="0" />
    <path
       d="m 246.84429,240.36743 c 2.28513,-1.47674 4.97353,-5.84293 5.55503,-13.98653 0.0259,-0.36309 0.0473,-0.73335 0.0675,-1.10718 -1.44891,4.27991 -3.69915,5.22677 -8.14393,4.15554 -3.49339,-0.84263 -7.13093,-5.27568 -16.02193,-8.36145 -6.343,-2.20071 -11.91437,-3.3496 -16.38957,-3.92982 -0.0563,0.0481 -0.1092,0.0963 -0.16556,0.14364 2.28214,0.74336 4.60219,1.56947 6.92297,2.48615 14.43195,5.71425 23.81609,12.29844 28.17544,20.59947"
       style="fill:#b4b7b9;fill-opacity:1;fill-rule:nonzero;stroke:none;stroke-width:0.13333331"
       id="path122"
       inkscape:connector-curvature="0" />
    <path
       d="m 188.16964,55.428558 c 0.11076,0.02876 0.10608,0.18193 -0.01,0.202045 -2.9899,0.557906 -6.01027,0.21927 -8.41202,-1.329342 -0.0677,-0.04525 -0.16556,0 -0.16556,0.08261 l -0.11583,9.927352 c 0,0.04525 0.0328,0.106985 0.0809,0.103657 4.39948,-0.336497 7.58768,-1.826896 8.87839,-3.295706 2.84371,-3.235303 -0.25688,-5.690539 -0.25688,-5.690539 z M 99.071522,30.267307 c 4.770798,4.754449 11.195468,7.991189 17.959538,9.501724 10.34885,2.30856 9.09005,0.136626 8.66377,-0.135924 -0.8236,-0.516216 -11.6537,-10.547081 -12.08886,-21.201252 -0.92982,20.800072 -12.55305,12.458039 -14.534448,11.835417 z m -0.327513,-0.11137 c 6.360081,17.541776 -2.155912,11.869951 -4.063782,11.467333 4.524988,3.989483 11.947793,4.484125 16.988893,3.336659 2.13737,-0.486715 -8.84274,-3.544439 -12.925111,-14.803992 z m 65.297611,7.287328 c -14.03536,-1.841962 -13.10108,-16.966613 -21.82576,-11.631969 -16.20987,9.910796 -28.60989,-7.379354 -28.60989,-7.379354 0.0214,0 4.30366,9.539099 11.77323,14.267661 11.07369,7.011954 22.05378,7.449806 19.23395,-4.042678 -0.0304,-0.119964 0.14039,-0.185488 0.20051,-0.07401 2.59779,4.748714 10.04954,9.885645 17.77907,12.478911 5.78377,1.944774 6.5175,1.011577 12.72829,4.137578 1.76381,0.887176 3.35234,2.194261 4.82724,3.58399 -3.10949,-4.019685 -0.89266,-9.344244 -16.10664,-11.340073 z m -59.64974,12.596086 c -4.15439,-1.461636 -8.163954,-4.971577 -10.203276,-8.539746 0,0 5.099041,6.772552 3.237206,9.089022 -1.243924,1.548627 8.40533,7.858895 9.60694,8.160139 0.0677,0.01579 0.13591,-0.02876 0.13591,-0.09927 0.0216,-1.020188 0.0304,-7.62307 -2.77678,-8.610198"
       style="fill:#b4b7b9;fill-opacity:1;fill-rule:nonzero;stroke:none;stroke-width:0.13333331"
       id="path124"
       inkscape:connector-curvature="0" />
    <path
       d="m 147.44412,259.21339 c -0.0809,0.12066 -0.17531,0.23582 -0.28444,0.3422 0.1092,-0.10645 0.20351,-0.22138 0.28444,-0.3422 z m 0.004,-0.003 c -0.002,7.1e-4 -0.002,10e-4 -0.002,10e-4 0,0 0.002,-10e-4 0.002,-0.003 z m -0.44706,-2.32727 c -0.002,-7e-4 -4.70545,-4.14261 -12.37482,-9.14366 l -0.51391,-0.1717 c 0,0 9.54901,5.81277 -3.19934,8.67132 -25.16697,5.64378 -50.974089,0.82609 -59.505665,0.41339 -8.531577,-0.41339 -15.807334,1.55294 -17.915725,1.23874 -5.545379,-0.82604 -3.200818,-7.97248 3.306276,-12.2855 7.215598,-4.78319 30.818566,-3.71625 30.818566,-3.71625 0,0 -16.506185,-1.84628 -14.289372,-6.71071 1.599669,-3.50998 9.378943,-4.50715 13.681138,-4.66535 -2.844372,-0.10018 -5.709512,-0.005 -8.577636,0.3293 -13.547443,1.58171 -23.879209,9.01498 -30.712348,16.17577 -3.335994,3.48908 -7.13241,9.9683 -5.251275,14.36258 0.187983,0.4335 0.375771,0.79225 0.558469,1.05254 2.20566,3.10587 8.839037,1.86638 12.388151,1.67658 0.49016,-0.0245 0.972148,0.11155 1.368726,0.38823 0,0 17.255503,7.60512 41.285469,6.09098 23.647486,-1.48966 42.876226,-6.88829 49.380356,-11.37886 0.5169,-0.77218 0.4352,-1.77082 -0.44706,-2.32728"
       style="fill:#d39a72;fill-opacity:1;fill-rule:nonzero;stroke:none;stroke-width:0.13333331"
       id="path126"
       inkscape:connector-curvature="0" />
    <path
       d="m 234.44126,266.35837 0.002,-4.7e-4 v 0 z m 0,0 c -0.28148,0.0329 -0.55773,0.12716 -0.80503,0.26384 0.52802,-0.15383 0.79463,-0.25953 0.80503,-0.26384 z m -48.00497,-6.53891 c -4.61929,-1.3121 -10.59837,-3.49338 -14.93325,-5.65097 -4.68908,-2.333 -3.12505,-4.12249 1.07909,-3.90319 23.55837,1.23011 49.54373,-0.90804 49.54373,-0.90804 0,0 -41.51939,-1.58317 -63.27462,-8.18963 -11.06327,-3.36038 -23.06153,-6.77328 -32.185,-9.31695 -10.35927,-3.77667 -21.43072,-6.08521 -33.83669,-5.41804 v 0 c 24.89069,2.67236 47.92924,17.14637 62.68868,26.42519 1.30781,0.82247 2.63937,1.64638 3.98655,2.46674 8.54271,4.64588 29.79813,12.17764 41.78971,13.92328 14.18389,2.06555 24.38051,0.32494 32.18355,-2.52352 -0.0388,0.0253 -0.0803,0.0473 -0.11583,0.0747 0.0855,-0.0654 0.17823,-0.12382 0.27404,-0.17686 -6.81829,0.0798 -23.45444,-0.0582 -47.19994,-6.80273"
       style="fill:#d39a72;fill-opacity:1;fill-rule:nonzero;stroke:none;stroke-width:0.13333331"
       id="path128"
       inkscape:connector-curvature="0" />
    <path
       d="m 116.65083,47.344643 c -1.28254,0.383921 -2.45744,0.803779 -3.50607,1.260327 l 0.20646,10.104913 3.29961,-11.36524"
       style="fill:#b4b7b9;fill-opacity:1;fill-rule:nonzero;stroke:none;stroke-width:0.13333331"
       id="path130"
       inkscape:connector-curvature="0" />
    <path
       d="m 173.25199,48.633715 c -0.93797,-0.411228 -1.97693,-0.793711 -3.10576,-1.146712 l 3.35083,11.636283 -0.24507,-10.489571"
       style="fill:#b4b7b9;fill-opacity:1;fill-rule:nonzero;stroke:none;stroke-width:0.13333331"
       id="path132"
       inkscape:connector-curvature="0" />
    <path
       d="m 42.476305,203.65473 c 1.69325,-0.64992 3.446639,-1.26537 5.267616,-1.83623 0.816185,-22.76208 13.779887,-43.44855 13.779887,-43.44855 -13.978166,13.16621 -18.252125,39.44471 -19.047503,45.28478"
       style="fill:#b4b7b9;fill-opacity:1;fill-rule:nonzero;stroke:none;stroke-width:0.13333331"
       id="path134"
       inkscape:connector-curvature="0" />
    <path
       d="m 226.17777,160.15942 c 0,0 9.20592,16.94142 11.09372,37.29648 1.74746,0.61472 3.50235,1.33941 5.22754,2.19571 -1.79646,-9.78138 -6.89998,-29.43331 -16.32126,-39.49219"
       style="fill:#b4b7b9;fill-opacity:1;fill-rule:nonzero;stroke:none;stroke-width:0.13333331"
       id="path136"
       inkscape:connector-curvature="0" />
    <path
       d="m 174.44988,214.33838 c 0.0176,-6.9e-4 0.0349,-6.9e-4 0.0529,-0.001 10.36965,-42.75261 16.12815,-55.55433 16.12815,-55.55433 l -5.00398,-1.77581 c -2.62378,8.33846 -8.42091,28.8394 -11.76433,56.55943 l 0.58742,0.77216"
       style="fill:#b4b7b9;fill-opacity:1;fill-rule:nonzero;stroke:none;stroke-width:0.13333331"
       id="path138"
       inkscape:connector-curvature="0" />
    <path
       d="m 44.587661,251.29268 c 0,0 -4.345252,13.05476 10.824149,12.8182 0,0 -10.700868,2.3999 -12.804794,-1.91384 -2.103927,-4.31371 1.980645,-10.90436 1.980645,-10.90436"
       style="fill:#ffcfa0;fill-opacity:1;fill-rule:nonzero;stroke:none;stroke-width:0.13333331"
       id="path198"
       inkscape:connector-curvature="0" />
    <path
       d="m 114.77488,67.297071 c 0,0 -0.79238,14.742169 1.32342,28.79128 1.13995,7.565529 2.86813,15.968669 6.59325,19.416789 0,0 -8.42984,-5.52086 -9.04325,-20.182474 -0.61344,-14.661667 1.12658,-28.025595 1.12658,-28.025595"
       style="fill:#ffcfa0;fill-opacity:1;fill-rule:nonzero;stroke:none;stroke-width:0.13333331"
       id="path200"
       inkscape:connector-curvature="0" />
    <path
       d="m 171.43992,67.297071 c 0,0 0.79242,14.742169 -1.32413,28.79128 -1.13997,7.565529 -2.86812,15.968669 -6.59327,19.416789 0,0 8.43058,-5.52086 9.04326,-20.182474 0.61342,-14.661667 -1.12586,-28.025595 -1.12586,-28.025595"
       style="fill:#ffcfa0;fill-opacity:1;fill-rule:nonzero;stroke:none;stroke-width:0.13333331"
       id="path202"
       inkscape:connector-curvature="0" />
    <text
       xml:space="preserve"
       style="font-style:normal;font-variant:normal;font-weight:bold;font-stretch:normal;font-size:19.13110352px;line-height:1.25;font-family:Meera;-inkscape-font-specification:'Meera Bold';letter-spacing:0px;word-spacing:0px;fill:#000000;fill-opacity:1;stroke:none;stroke-width:0.99999988"
       x="359.55246"
       y="227.59158"
       id="text452"
       transform="scale(0.99276748,1.0072852)"><tspan
         sodipodi:role="line"
         id="tspan450"
         x="359.55246"
         y="243.37848"
         style="font-style:normal;font-variant:normal;font-weight:bold;font-stretch:normal;font-family:Meera;-inkscape-font-specification:'Meera Bold';stroke-width:0.99999988" /></text>
    <text
       xml:space="preserve"
       style="font-style:normal;font-weight:normal;font-size:15.86276436px;line-height:1.25;font-family:sans-serif;letter-spacing:0px;word-spacing:0px;fill:#000000;fill-opacity:1;stroke:none;stroke-width:0.99999976"
       x="324.65009"
       y="204.99756"
       id="text456"
       transform="scale(0.87593851,1.1416326)"><tspan
         sodipodi:role="line"
         id="tspan454"
         x="324.65009"
         y="219.03239"
         style="font-style:normal;font-variant:normal;font-weight:bold;font-stretch:normal;font-size:15.86276436px;font-family:sans-serif;-inkscape-font-specification:'sans-serif Bold';fill:#bc8c4c;fill-opacity:1;stroke-width:0.99999976" /></text>
    <flowRoot
       transform="matrix(0.47481846,0,0,0.48176191,39.421471,-84.11985)"
       xml:space="preserve"
       id="flowRoot1263"
       style="font-style:normal;font-variant:normal;font-weight:bold;font-stretch:normal;font-size:40px;line-height:1.25;font-family:Meera;-inkscape-font-specification:'Meera Bold';font-variant-ligatures:normal;font-variant-position:normal;font-variant-caps:normal;font-variant-numeric:normal;font-variant-alternates:normal;font-feature-settings:normal;text-indent:0;text-align:start;text-decoration:none;text-decoration-line:none;text-decoration-style:solid;text-decoration-color:#000000;letter-spacing:0px;word-spacing:0px;text-transform:none;writing-mode:lr-tb;direction:ltr;text-orientation:mixed;dominant-baseline:auto;baseline-shift:baseline;text-anchor:start;white-space:normal;shape-padding:0;opacity:1;vector-effect:none;fill:#000000;fill-opacity:1;stroke:none;stroke-width:2.09083581;stroke-linecap:butt;stroke-linejoin:miter;stroke-miterlimit:4;stroke-dasharray:none;stroke-dashoffset:0;stroke-opacity:1"><flowRegion
         id="flowRegion1265"
         style="font-style:normal;font-variant:normal;font-weight:bold;font-stretch:normal;font-family:Meera;-inkscape-font-specification:'Meera Bold';stroke-width:2.09083581"><rect
           id="rect1267"
           width="435.27527"
           height="57.377197"
           x="599.4928"
           y="606.93793"
           style="font-style:normal;font-variant:normal;font-weight:bold;font-stretch:normal;font-family:Meera;-inkscape-font-specification:'Meera Bold';stroke-width:2.09083581" /></flowRegion><flowPara
         id="flowPara1269"
         style="stroke-width:2.09083581" /></flowRoot>    <flowRoot
       transform="matrix(0.47481846,0,0,0.48176191,39.421471,-84.11985)"
       xml:space="preserve"
       id="flowRoot1271"
       style="font-style:normal;font-variant:normal;font-weight:bold;font-stretch:normal;font-size:40px;line-height:1.25;font-family:Meera;-inkscape-font-specification:'Meera Bold';font-variant-ligatures:normal;font-variant-position:normal;font-variant-caps:normal;font-variant-numeric:normal;font-variant-alternates:normal;font-feature-settings:normal;text-indent:0;text-align:start;text-decoration:none;text-decoration-line:none;text-decoration-style:solid;text-decoration-color:#000000;letter-spacing:0px;word-spacing:0px;text-transform:none;writing-mode:lr-tb;direction:ltr;text-orientation:mixed;dominant-baseline:auto;baseline-shift:baseline;text-anchor:start;white-space:normal;shape-padding:0;opacity:1;vector-effect:none;fill:#000000;fill-opacity:1;stroke:none;stroke-width:2.09083581;stroke-linecap:butt;stroke-linejoin:miter;stroke-miterlimit:4;stroke-dasharray:none;stroke-dashoffset:0;stroke-opacity:1"><flowRegion
         id="flowRegion1273"
         style="font-style:normal;font-variant:normal;font-weight:bold;font-stretch:normal;font-family:Meera;-inkscape-font-specification:'Meera Bold';stroke-width:2.09083581"><rect
           id="rect1275"
           width="431.31824"
           height="41.549004"
           x="609.38538"
           y="602.9809"
           style="font-style:normal;font-variant:normal;font-weight:bold;font-stretch:normal;font-family:Meera;-inkscape-font-specification:'Meera Bold';stroke-width:2.09083581" /></flowRegion><flowPara
         id="flowPara1277"
         style="stroke-width:2.09083581" /></flowRoot>    <flowRoot
       transform="matrix(0.47481846,0,0,0.48176191,39.421471,-84.11985)"
       xml:space="preserve"
       id="flowRoot1279"
       style="font-style:normal;font-variant:normal;font-weight:normal;font-stretch:normal;font-size:40px;line-height:1.25;font-family:'URW Bookman L';-inkscape-font-specification:'URW Bookman L';font-variant-ligatures:normal;font-variant-position:normal;font-variant-caps:normal;font-variant-numeric:normal;font-variant-alternates:normal;font-feature-settings:normal;text-indent:0;text-align:start;text-decoration:none;text-decoration-line:none;text-decoration-style:solid;text-decoration-color:#000000;letter-spacing:0px;word-spacing:0px;text-transform:none;writing-mode:lr-tb;direction:ltr;text-orientation:mixed;dominant-baseline:auto;baseline-shift:baseline;text-anchor:start;white-space:normal;shape-padding:0;opacity:1;vector-effect:none;fill:#000000;fill-opacity:1;stroke:none;stroke-width:2.09083581;stroke-linecap:butt;stroke-linejoin:miter;stroke-miterlimit:4;stroke-dasharray:none;stroke-dashoffset:0;stroke-opacity:1"><flowRegion
         id="flowRegion1281"
         style="stroke-width:2.09083581"><rect
           id="rect1283"
           width="757.77472"
           height="753.81763"
           x="-203.78798"
           y="145.94185"
           style="stroke-width:2.09083581" /></flowRegion><flowPara
         id="flowPara1285"
         style="stroke-width:2.09083581" /></flowRoot>    <text
       xml:space="preserve"
       style="font-style:normal;font-variant:normal;font-weight:normal;font-stretch:normal;font-size:73.97393799px;line-height:1.25;font-family:'URW Bookman L';-inkscape-font-specification:'URW Bookman L';font-variant-ligatures:normal;font-variant-position:normal;font-variant-caps:normal;font-variant-numeric:normal;font-variant-alternates:normal;font-feature-settings:normal;text-indent:0;text-align:start;text-decoration:none;text-decoration-line:none;text-decoration-style:solid;text-decoration-color:#000000;letter-spacing:0px;word-spacing:0px;text-transform:none;writing-mode:lr-tb;direction:ltr;text-orientation:mixed;dominant-baseline:auto;baseline-shift:baseline;text-anchor:start;white-space:normal;shape-padding:0;opacity:1;vector-effect:none;fill:#000000;fill-opacity:1;stroke:none;stroke-width:1;stroke-linecap:butt;stroke-linejoin:miter;stroke-miterlimit:4;stroke-dasharray:none;stroke-dashoffset:0;stroke-opacity:1"
       x="407.78473"
       y="268.96353"
       id="text1883"
       transform="scale(1.0544416,0.94836927)"><tspan
         sodipodi:role="line"
         id="tspan1881"
         x="407.78473"
         y="335.70456"
         style="stroke-width:1" /></text>
    <flowRoot
       transform="matrix(1.95003,0,0,1.7538654,25.447477,1.0658897)"
       xml:space="preserve"
       id="flowRoot1885"
       style="font-style:normal;font-variant:normal;font-weight:normal;font-stretch:normal;font-size:40px;line-height:1.25;font-family:'URW Bookman L';-inkscape-font-specification:'URW Bookman L';font-variant-ligatures:normal;font-variant-position:normal;font-variant-caps:normal;font-variant-numeric:normal;font-variant-alternates:normal;font-feature-settings:normal;text-indent:0;text-align:start;text-decoration:none;text-decoration-line:none;text-decoration-style:solid;text-decoration-color:#000000;letter-spacing:0px;word-spacing:0px;text-transform:none;writing-mode:lr-tb;direction:ltr;text-orientation:mixed;dominant-baseline:auto;baseline-shift:baseline;text-anchor:start;white-space:normal;shape-padding:0;opacity:1;vector-effect:none;fill:#000000;fill-opacity:1;stroke:none;stroke-width:0.54073095;stroke-linecap:butt;stroke-linejoin:miter;stroke-miterlimit:4;stroke-dasharray:none;stroke-dashoffset:0;stroke-opacity:1"><flowRegion
         id="flowRegion1887"
         style="stroke-width:0.54073095"><rect
           id="rect1889"
           width="152.06094"
           height="63.15292"
           x="126.65865"
           y="40.750355"
           style="stroke-width:0.54073095" /></flowRegion><flowPara
         id="flowPara1891"
         style="stroke-width:0.54073095" /></flowRoot>  </g>
</svg>
